<svg width="61" height="60" viewBox="0 0 61 60" fill="none" xmlns="http://www.w3.org/2000/svg">
<path d="M50.0998 32.8198C51.4594 31.4428 51.4464 29.2391 50.0709 27.8777C48.6955 26.5163 46.4695 26.5042 45.0789 27.8505L42.521 30.3857V14.4989C42.5209 13.7187 42.1924 12.9738 41.6146 12.4432C41.0368 11.9126 40.2618 11.6444 39.4759 11.7029C39.0456 11.7361 38.6297 11.8714 38.2635 12.0976V11.7786C38.2633 10.226 36.992 8.96729 35.4236 8.96729C33.8553 8.96729 32.5838 10.226 32.5838 11.7787V12.0837C32.155 11.8317 31.6661 11.6974 31.1674 11.6946C29.6019 11.6946 28.3315 12.949 28.3276 14.4989V19.6533L25.478 11.8992C25.2104 11.1746 24.6508 10.5926 23.933 10.2923C23.2151 9.99197 22.4035 10.0004 21.6921 10.3154C21.3083 10.4891 20.9718 10.7509 20.7106 11.0789L20.6065 10.7985C20.3511 10.1068 19.8297 9.54306 19.1562 9.23019C18.1278 8.75392 16.9108 8.93837 16.0734 9.69735C15.236 10.4563 14.9432 11.6403 15.332 12.6964L15.4333 12.9635C14.9526 12.8759 14.4572 12.9159 13.9971 13.0792C12.5402 13.6043 11.7884 15.1986 12.3173 16.6414L13.1671 18.9403C12.6171 18.8411 12.0496 18.9077 11.5383 19.1318C10.1824 19.7726 9.55211 21.3378 10.0908 22.7262L14.7364 35.3634C15.1412 36.4666 15.7102 37.5038 16.4247 38.4405L20.5852 43.8858C20.0004 44.2291 19.7444 44.9354 19.9755 45.5685L21.6425 50.1052C21.7703 50.4554 22.0335 50.7408 22.3741 50.8986C22.7147 51.0565 23.1047 51.0737 23.4582 50.9465L25.5976 50.1753C25.8192 50.6959 26.3349 51.0339 26.9055 51.0327H41.8126C42.986 51.0327 43.9371 50.0911 43.9371 48.9294V45.41C43.9337 44.5098 43.3491 43.7126 42.4854 43.4308V40.1533L50.0998 32.8198ZM34.0016 11.7787C34.0016 11.0004 34.6389 10.3695 35.425 10.3695C36.2112 10.3695 36.8485 11.0004 36.8485 11.7787V21.6641C35.9259 21.2995 34.8898 21.3428 34.0016 21.7833V11.7787ZM29.7455 14.4989C29.7468 13.9309 30.0932 13.4194 30.6236 13.2027C31.154 12.9859 31.764 13.1065 32.1696 13.5082C32.4364 13.7701 32.5862 14.1269 32.5853 14.4989V23.0592C32.5071 23.1715 32.4362 23.2886 32.3729 23.4098L30.8857 26.6082L29.7455 23.5066V14.4989ZM11.4214 22.2467C11.1445 21.5488 11.4447 20.7566 12.1169 20.4112C12.4692 20.2555 12.871 20.2514 13.2265 20.3998C13.5821 20.5482 13.8595 20.8359 13.9929 21.1944L16.6237 28.3518C16.6548 28.4318 16.7005 28.5054 16.7582 28.5692C16.7746 28.5862 16.7918 28.6024 16.8099 28.6175C16.8542 28.659 16.9037 28.6946 16.9572 28.7235C16.9789 28.7351 17.001 28.7456 17.0238 28.755C17.0841 28.7798 17.1479 28.7957 17.2128 28.802C17.2313 28.802 17.2483 28.8097 17.2674 28.8104C17.2744 28.8104 17.2815 28.8104 17.2893 28.8104C17.5205 28.8103 17.7371 28.6986 17.8695 28.511C18.002 28.3234 18.0337 28.0838 17.9543 27.8687L15.3242 20.7162L13.6494 16.1619C13.3881 15.4479 13.7596 14.6593 14.4801 14.3987C15.2012 14.1407 15.9974 14.5079 16.2619 15.2203L19.8495 24.9788C19.8801 25.0588 19.9255 25.1325 19.9833 25.1961C20.0004 25.215 20.0194 25.2298 20.0379 25.2473C20.0807 25.2868 20.1282 25.3209 20.1795 25.3489C20.2023 25.3622 20.226 25.3739 20.2503 25.384C20.3068 25.4064 20.3662 25.4212 20.4267 25.4282C20.4493 25.4282 20.4699 25.4373 20.4926 25.4381C20.499 25.4381 20.5053 25.4381 20.5124 25.4381C20.5948 25.4382 20.6766 25.4238 20.7539 25.3953C20.9306 25.332 21.0746 25.2018 21.1543 25.0334C21.2341 24.8649 21.2428 24.672 21.1788 24.4972L16.6642 12.2168C16.4029 11.5029 16.7744 10.7142 17.4949 10.4536C17.841 10.3274 18.2238 10.3444 18.5572 10.5006C18.8906 10.6551 19.1492 10.9334 19.2767 11.2753L23.7899 23.5584C23.9053 23.8715 24.2274 24.0608 24.5603 24.0113C24.8931 23.9618 25.1448 23.6872 25.1624 23.3544C25.1673 23.2607 25.1529 23.1669 25.1199 23.0789L24.3408 20.9643L21.5761 13.4304C21.299 12.7331 21.5986 11.9413 22.2702 11.5956C22.6227 11.4395 23.025 11.4352 23.3808 11.5838C23.7367 11.7324 24.0144 12.0206 24.1475 12.3795L29.5544 27.0856C29.7478 27.6159 30.2459 27.9778 30.8149 28.0013C31.3867 28.0351 31.9196 27.714 32.1519 27.1957L33.6575 24.0001C33.9453 23.3787 34.5257 22.9391 35.2069 22.8267C35.888 22.7143 36.581 22.9438 37.0568 23.4392C37.6575 24.0537 37.8133 24.9713 37.4484 25.7465L32.8623 35.4847C32.8535 35.5114 32.847 35.5389 32.8424 35.5667C32.8191 35.6251 32.8041 35.6864 32.7978 35.749C32.7933 35.8425 32.8077 35.9359 32.8403 36.0238L33.9507 39.0441L26.7435 41.6381C26.6572 41.397 26.5686 41.1572 26.483 40.9146C25.279 37.5066 23.9173 33.645 19.5606 32.5268C18.1342 32.1658 16.6371 32.1818 15.2188 32.573L11.4214 22.2467ZM17.5578 37.595C16.9285 36.7696 16.4273 35.8559 16.0707 34.8839L15.7095 33.9024C16.8556 33.6033 18.06 33.5984 19.2086 33.8883C22.833 34.8193 23.9583 38.0065 25.1494 41.3816C25.2372 41.6304 25.3272 41.8723 25.4157 42.1226L21.9684 43.365L17.5578 37.595ZM22.9768 49.6306L21.3112 45.0917L21.9393 44.8653L35.0859 40.128C35.1632 40.1 35.245 40.0857 35.3274 40.0859C35.6255 40.0855 35.8919 40.2699 35.9938 40.5472L37.1743 43.7666C37.2385 43.9416 37.2298 44.1346 37.1501 44.3033C37.0705 44.4719 36.9262 44.6022 36.7494 44.6655L22.9768 49.6306ZM42.5209 45.4107L42.5223 48.9295C42.5223 49.3167 42.2053 49.6306 41.8142 49.6306H27.1139L32.9706 47.5203H39.6883V48.2214C39.6883 48.6086 40.0053 48.9225 40.3964 48.9225C40.7875 48.9225 41.1046 48.6086 41.1046 48.2214V47.5203C41.1018 46.7443 40.465 46.117 39.6811 46.1181H36.8619L37.2365 45.9835C37.8291 45.7675 38.2926 45.3001 38.4999 44.7097H41.8127C42.2038 44.7097 42.5209 45.0235 42.5209 45.4107ZM41.2817 39.3547V39.3589C41.2112 39.4293 41.1564 39.5137 41.1209 39.6063C41.0894 39.6847 41.0726 39.7681 41.0714 39.8524V39.8573V43.3067H38.5113C38.5113 43.3004 38.5113 43.2934 38.5063 43.2871L37.3223 40.0669C37.0134 39.2407 36.2173 38.6925 35.3274 38.6935L34.2701 35.819L38.7316 26.3444C39.3051 25.1425 39.1224 23.7204 38.2634 22.6988V14.6181C38.2438 13.8526 38.8143 13.1973 39.582 13.1038C39.9745 13.0745 40.3616 13.2083 40.6504 13.473C40.9392 13.7376 41.1037 14.1093 41.1046 14.499V30.3857C41.1031 30.9542 41.4484 31.4674 41.9789 31.685C42.5095 31.9026 43.1202 31.7815 43.5252 31.3784L46.0796 28.8432C46.9178 28.0596 48.2332 28.0769 49.0501 28.8823C49.867 29.6876 49.89 30.9897 49.1021 31.8229L41.2817 39.3547Z" fill="white" fill-opacity="0.5"/>
<path d="M35.4035 42.9498C35.1359 42.2283 34.33 41.8562 33.5998 42.1168L32.3371 42.5718C32.3258 42.576 32.3145 42.5796 32.3031 42.5845L23.7427 45.6693C23.5002 45.7515 23.3216 45.9569 23.2754 46.2065C23.2293 46.4561 23.323 46.7108 23.5204 46.8726C23.7178 47.0344 23.988 47.078 24.2271 46.9866L32.8286 43.8815C32.8488 43.8754 32.8687 43.8681 32.8881 43.8598L34.0743 43.4314L34.3136 44.082C34.4004 44.3173 34.6074 44.4889 34.8566 44.5322C35.1058 44.5755 35.3594 44.4838 35.5219 44.2918C35.6844 44.0997 35.731 43.8364 35.6443 43.6011L35.4035 42.9498Z" fill="white" fill-opacity="0.5"/>
</svg>
