<svg width="40" height="40" fill="none" xmlns="http://www.w3.org/2000/svg"><path fill-rule="evenodd" clip-rule="evenodd" d="M40 20c0 .885-.057 1.757-.169 2.611l-.746-.097a19.416 19.416 0 000-5.029l.746-.096c.111.854.169 1.726.169 2.611zm-4.729 11.717a19.23 19.23 0 002.516-4.35l.695.289a19.984 19.984 0 01-2.614 4.52l-.597-.459zm-3.553 3.554l.458.597a19.988 19.988 0 01-4.52 2.614l-.288-.695a19.234 19.234 0 004.35-2.516zm-9.203 3.814l.097.746a20.211 20.211 0 01-5.224 0l.098-.746a19.416 19.416 0 005.029 0zm-9.882-1.298l-.289.695a19.985 19.985 0 01-4.52-2.614l.459-.597a19.23 19.23 0 004.35 2.516zm-7.904-6.07l-.597.46a19.985 19.985 0 01-2.614-4.521l.695-.288a19.233 19.233 0 002.516 4.35zM.915 22.516l-.746.097a20.203 20.203 0 010-5.224l.746.098a19.43 19.43 0 000 5.029zm1.298-9.882l-.695-.289a19.986 19.986 0 012.614-4.52l.597.459a19.23 19.23 0 00-2.516 4.35zm6.07-7.904l-.46-.597a19.986 19.986 0 014.521-2.614l.288.695a19.231 19.231 0 00-4.35 2.516zM17.484.915L17.388.17a20.203 20.203 0 015.224 0l-.098.746a19.43 19.43 0 00-5.029 0zm9.882 1.298l.289-.695a19.985 19.985 0 014.52 2.614l-.459.597a19.232 19.232 0 00-4.35-2.516zm7.904 6.07l.597-.46a19.989 19.989 0 012.614 4.521l-.695.288a19.232 19.232 0 00-2.516-4.35zM17.645 21.634l6.435-6.45a1.5 1.5 0 112.115 2.13l-7.5 7.5a1.5 1.5 0 01-2.115 0l-3.525-3.54a1.5 1.5 0 112.115-2.115l2.475 2.475zM11.666 7.528a15 15 0 1116.668 24.945A15 15 0 0111.666 7.528zm1.667 22.45a12 12 0 1013.334-19.954 12 12 0 00-13.334 19.954z" fill="#35C774"/></svg>