<svg width="60" height="61" viewBox="0 0 60 61" fill="none" xmlns="http://www.w3.org/2000/svg">
<path d="M42.7792 41.8237L42.7845 41.8112C42.7825 41.8106 42.7806 41.8093 42.7786 41.8081L41.2197 14.223V11.7369C41.2197 11.3915 40.924 11.1112 40.5597 11.1112H19.4397C19.0753 11.1112 18.7797 11.3915 18.7797 11.7369V14.223L17.2207 41.8081C17.2187 41.8087 17.2168 41.81 17.2148 41.8112L17.2201 41.8237L16.801 49.2403C16.7911 49.4118 16.8564 49.5794 16.9811 49.7039C17.1052 49.8284 17.2788 49.8991 17.4596 49.8991H22.7397C23.0452 49.8991 23.3106 49.7008 23.3818 49.4186L29.9997 23.1855L36.6175 49.4193C36.6888 49.7008 36.9541 49.8991 37.2597 49.8991H42.5397C42.7205 49.8991 42.8941 49.8284 43.0188 49.7039C43.1436 49.5794 43.2089 49.4118 43.199 49.2403L42.7792 41.8237ZM38.5797 31.9973L37.5289 29.8064C36.9125 28.5201 36.5997 27.1513 36.5997 25.7374V25.2513C36.5997 22.4248 37.8952 19.7415 40.1049 17.8879L41.4104 40.9873C40.4686 40.1796 39.8997 39.0298 39.8997 37.7717C39.8997 35.7659 39.4555 33.8234 38.5797 31.9973ZM20.0997 12.3625H39.8997V13.6137H20.0997V12.3625ZM19.8944 17.8879C22.1041 19.7422 23.3997 22.4248 23.3997 25.2519V25.738C23.3997 27.1513 23.0868 28.5201 22.4697 29.8064L21.4197 31.9973C20.5438 33.8234 20.0997 35.7659 20.0997 37.7717C20.0997 39.0298 19.5307 40.1796 18.5889 40.9873L19.8944 17.8879ZM22.2189 48.6479H18.156L18.4972 42.6051C20.2963 41.611 21.4197 39.793 21.4197 37.7717C21.4197 36.9227 21.5107 36.0869 21.6843 35.2673L22.1912 36.0681C22.5502 36.6355 22.7397 37.2843 22.7397 37.9449V38.1201C22.7397 39.3344 23.2076 40.4774 24.0537 41.3745L22.2189 48.6479ZM29.9997 19.8698C29.6941 19.8698 29.4288 20.0681 29.3575 20.3503L24.4649 39.7455C24.2022 39.2462 24.0597 38.6938 24.0597 38.1201V37.9449C24.0597 37.0578 23.8049 36.1857 23.3231 35.425L22.1668 33.5982C22.3014 33.2328 22.4499 32.8712 22.6209 32.5159L23.6716 30.325C24.3672 28.8742 24.7197 27.3308 24.7197 25.7374V25.2513C24.7197 21.7429 22.9502 18.4303 19.9815 16.3464L20.0653 14.8649H39.934L40.0178 16.347C37.0491 18.4309 35.2797 21.7429 35.2797 25.2519V25.738C35.2797 27.3315 35.6321 28.8742 36.3277 30.3244L37.3785 32.5159C37.5487 32.8719 37.6979 33.2335 37.8325 33.5982L36.6762 35.425C36.1944 36.1857 35.9397 37.0578 35.9397 37.9449V38.1201C35.9397 38.6938 35.7971 39.2462 35.5344 39.7448L30.6418 20.3496C30.5706 20.0681 30.3052 19.8698 29.9997 19.8698ZM37.7804 48.6479L35.9456 41.3745C36.7917 40.4774 37.2597 39.3344 37.2597 38.1201V37.9449C37.2597 37.2843 37.4491 36.6355 37.8081 36.0687L38.315 35.268C38.4886 36.0869 38.5797 36.9227 38.5797 37.7717C38.5797 39.793 39.703 41.611 41.5015 42.6045L41.8434 48.6479H37.7804Z" fill="white" fill-opacity="0.5"/>
</svg>
