<svg width="40" height="40" fill="none" xmlns="http://www.w3.org/2000/svg"><path fill-rule="evenodd" clip-rule="evenodd" d="M20 40c-.885 0-1.757-.057-2.611-.169l.097-.746a19.416 19.416 0 005.029 0l.096.746c-.854.111-1.726.169-2.611.169zM8.283 35.271a19.229 19.229 0 004.35 2.516l-.289.695a19.985 19.985 0 01-4.52-2.614l.459-.597zm-3.554-3.553l-.597.458a19.985 19.985 0 01-2.614-4.52l.695-.288a19.232 19.232 0 002.516 4.35zM.915 22.515l-.746.097a20.204 20.204 0 010-5.224l.746.098a19.43 19.43 0 000 5.029zm1.298-9.882l-.695-.289a19.986 19.986 0 012.614-4.52l.597.459a19.23 19.23 0 00-2.516 4.35zm6.07-7.904l-.46-.597a19.986 19.986 0 014.521-2.614l.288.695a19.231 19.231 0 00-4.35 2.516zM17.484.915L17.388.17a20.203 20.203 0 015.224 0l-.098.746a19.43 19.43 0 00-5.029 0zm9.882 1.298l.289-.695a19.985 19.985 0 014.52 2.614l-.459.597a19.231 19.231 0 00-4.35-2.516zm7.904 6.07l.597-.46a19.989 19.989 0 012.614 4.521l-.695.288a19.232 19.232 0 00-2.516-4.35zm3.814 9.202l.746-.097a20.21 20.21 0 010 5.224l-.746-.098a19.416 19.416 0 000-5.029zm-1.298 9.882l.695.289a19.984 19.984 0 01-2.614 4.52l-.597-.459a19.232 19.232 0 002.516-4.35zm-6.07 7.904l.46.597a19.988 19.988 0 01-4.521 2.614l-.288-.695a19.234 19.234 0 004.35-2.516zm-5.824-10.194a1.498 1.498 0 01-.328.488 1.5 1.5 0 01-2.13 0L20 22.115l-3.435 3.45a1.5 1.5 0 01-2.13 0 1.498 1.498 0 010-2.13L17.885 20l-3.45-3.435a1.498 1.498 0 010-2.13 1.5 1.5 0 012.13 0L20 17.885l3.435-3.45a1.506 1.506 0 012.13 2.13L22.115 20l3.45 3.435a1.5 1.5 0 01.328 1.642zm8.074.66a15 15 0 01-3.362 4.868 15.001 15.001 0 11-21.21-21.21 15 15 0 0124.572 16.341zM8.049 21.182a12 12 0 003.461 7.307A11.925 11.925 0 0020 32 12 12 0 108.049 21.183z" fill="#F2263F"/></svg>