<svg width="72" height="76" viewBox="0 0 72 76" fill="none" xmlns="http://www.w3.org/2000/svg">
<path d="M45.0227 38.8437H42.6238C42.2569 38.8437 41.9596 39.1562 41.9596 39.5416C41.9596 39.9271 42.2569 40.2396 42.6238 40.2396H45.0227C45.4655 40.2396 45.8257 40.6181 45.8257 41.0834V43.4688H26.615V41.0834C26.615 40.6181 26.9752 40.2396 27.418 40.2396H39.9788C40.3457 40.2396 40.643 39.9271 40.643 39.5416C40.643 39.1562 40.3457 38.8437 39.9788 38.8437H27.418C26.2428 38.8437 25.2867 39.8484 25.2867 41.0834V51.8757C25.2867 53.1107 26.2428 54.1156 27.418 54.1156H45.0226C46.1979 54.1156 47.1539 53.1107 47.1539 51.8757V41.0834C47.1539 39.8484 46.1978 38.8437 45.0227 38.8437ZM45.8257 51.8757C45.8257 52.341 45.4656 52.7196 45.0228 52.7196H27.4181C26.9753 52.7196 26.6151 52.341 26.6151 51.8757V44.8648H28.9545V45.7087C28.9545 46.0941 29.2518 46.4066 29.6187 46.4066C29.9856 46.4066 30.2829 46.0941 30.2829 45.7087V44.8648H45.8257V51.8757Z" fill="white" fill-opacity="0.5"/>
<path d="M52.3582 38.8436H50.0881L50.088 28.7492C50.0881 26.0919 49.1034 23.5936 47.3155 21.7146C47.2621 21.6586 47.2083 21.6035 47.154 21.5491V14.8733C47.154 14.4879 46.8567 14.1754 46.4899 14.1754H40.6216C40.2547 14.1754 39.9574 14.4879 39.9574 14.8733V18.8007H32.4834V14.8733C32.4834 14.4879 32.1861 14.1754 31.8192 14.1754H25.951C25.5841 14.1754 25.2868 14.4879 25.2868 14.8733V21.5555C23.48 23.3683 22.3527 25.923 22.3527 28.7493V38.8436H20.0826C18.0985 38.8436 16.4843 40.54 16.4843 42.6251L16.4844 54.9594C16.4844 56.1944 17.4406 57.1992 18.6157 57.1992H22.3527V59.5847C22.3527 60.8197 23.3088 61.8245 24.484 61.8245H47.9568C49.132 61.8245 50.088 60.8197 50.088 59.5847V57.1992H53.8251C55.0003 57.1992 55.9564 56.1944 55.9564 54.9594V42.6251C55.9566 40.54 54.3424 38.8436 52.3582 38.8436ZM17.8127 42.6251C17.8127 41.3098 18.831 40.2396 20.0826 40.2396H22.3527V43.4689H17.8127V42.6251ZM17.8128 44.8648H22.3527V51.1776H17.8128V44.8648ZM22.3528 55.8033H18.6158C18.173 55.8033 17.8128 55.4247 17.8128 54.9594V52.5736H22.3528V55.8033ZM41.2857 15.5713H42.8916V17.1859C42.8916 17.5714 43.1889 17.8839 43.5558 17.8839C43.9226 17.8839 44.2199 17.5714 44.2199 17.1859V15.5713H45.8257V20.4356C44.4757 19.4982 42.9214 18.9434 41.2857 18.8251V15.5713ZM26.6151 15.5713H28.221V17.1859C28.221 17.5714 28.5183 17.8839 28.8851 17.8839C29.252 17.8839 29.5493 17.5714 29.5493 17.1859V15.5713H31.1551V18.8255C29.4863 18.9477 27.9356 19.5263 26.6151 20.4432V15.5713ZM23.681 51.8759C23.681 51.8758 23.681 51.8757 23.681 51.8755C23.681 51.8753 23.681 51.8752 23.681 51.875V44.1677C23.681 44.1674 23.6811 44.167 23.6811 44.1667C23.6811 44.1665 23.681 44.1662 23.681 44.1658V28.7492C23.681 24.0333 27.3318 20.1966 31.8192 20.1966H40.6216C42.7954 20.1966 44.8391 21.0862 46.3762 22.7017C47.9132 24.317 48.7597 26.4646 48.7597 28.7491L48.7598 51.8748C48.7598 51.8751 48.7598 51.8755 48.7598 51.8758C48.7598 51.876 48.7598 51.8763 48.7598 51.8767V55.8032H23.681V51.8759ZM48.76 59.5847C48.76 60.05 48.3998 60.4285 47.957 60.4285H24.484C24.0413 60.4285 23.6811 60.05 23.6811 59.5847V57.1992H48.7599V59.5847H48.76ZM50.0882 40.2396H52.3583C53.6099 40.2396 54.6282 41.3098 54.6282 42.6251V43.4689H50.0882V40.2396ZM54.6281 54.9594C54.6281 55.4247 54.2679 55.8033 53.8251 55.8033H50.0882V52.5738H54.6281V54.9594ZM54.6282 51.1779H50.0883L50.0882 44.8648H54.6282V51.1779Z" fill="white" fill-opacity="0.5"/>
<path d="M40.8402 27.4849L36.6907 23.1241C36.5661 22.9931 36.3973 22.9196 36.221 22.9196C36.0449 22.9196 35.876 22.9931 35.7513 23.1241L31.6019 27.4849C31.3425 27.7575 31.3425 28.1995 31.6019 28.4719L35.7513 32.8327C35.8811 32.969 36.051 33.0371 36.221 33.0371C36.391 33.0371 36.561 32.969 36.6907 32.8327L40.8402 28.4719C40.9647 28.3411 41.0347 28.1635 41.0347 27.9784C41.0347 27.7933 40.9647 27.6158 40.8402 27.4849ZM36.2209 31.3521L33.0106 27.9784L36.2209 24.6046L39.4312 27.9783L36.2209 31.3521Z" fill="white" fill-opacity="0.5"/>
<path d="M36.2208 25.7386C35.8539 25.7386 35.5566 26.0512 35.5566 26.4366V29.5201C35.5566 29.9056 35.8539 30.2181 36.2208 30.2181C36.5877 30.2181 36.8849 29.9056 36.8849 29.5201V26.4366C36.8849 26.0512 36.5877 25.7386 36.2208 25.7386Z" fill="white" fill-opacity="0.5"/>
</svg>
