<svg width="21" height="21" fill="none" xmlns="http://www.w3.org/2000/svg"><path d="M20.25 15h-3a.75.75 0 00-.45.15l-2.55 1.912-2.55-1.912a.75.75 0 00-.45-.15H.75a.75.75 0 00-.75.75v1.5A3.755 3.755 0 003.75 21h13.5A3.755 3.755 0 0021 17.25v-1.5a.75.75 0 00-.75-.75zm0-3H.75a.75.75 0 100 1.5h19.5a.75.75 0 000-1.5zm-9-12h-1.5C4.368.006.006 4.368 0 9.75c0 .414.336.75.75.75h19.5a.75.75 0 00.75-.75C20.994 4.368 16.632.006 11.25 0zM7.5 6A.75.75 0 116 6v-.75a.75.75 0 111.5 0V6zm3.75 0a.75.75 0 11-1.5 0v-.75a.75.75 0 111.5 0V6zM15 6a.75.75 0 11-1.5 0v-.75a.75.75 0 011.5 0V6z" fill="#FCD61D"/></svg>