<svg width="61" height="60" viewBox="0 0 61 60" fill="none" xmlns="http://www.w3.org/2000/svg">
<path d="M44.4192 28.3132C43.3033 26.6421 42.7133 24.6981 42.7133 22.6908C42.7133 22.1746 42.7529 21.6561 42.8315 21.1492L43.9491 13.8987L37.1797 12.0563C37.0418 12.0192 36.8998 12 36.7579 12C35.8712 12 35.1497 12.72 35.1497 13.6049C35.1497 14.0421 35.1224 14.4759 35.0694 14.9032H32.8224V16.0645H34.8565C34.2479 18.599 32.7136 20.8438 30.4952 22.3343C28.2767 20.8432 26.7424 18.599 26.1339 16.0645H31.6588V14.9032H25.9209C25.868 14.4759 25.8406 14.0421 25.8406 13.6049C25.8406 12.72 25.1192 12 24.2325 12C24.0905 12 23.9485 12.0192 23.8095 12.0563L17.0412 13.8987L18.1589 21.1498C18.2374 21.6555 18.277 22.1741 18.277 22.6908C18.277 24.6981 17.687 26.6427 16.5711 28.3138L15.9497 29.2434V45.6774C15.9497 46.9583 16.9935 48 18.277 48C18.9757 48 19.5954 47.6853 20.0224 47.1975C20.4495 47.6853 21.0691 48 21.7679 48C22.4667 48 23.0863 47.6853 23.5133 47.1975C23.9404 47.6853 24.56 48 25.2588 48C25.9576 48 26.5772 47.6853 27.0043 47.1975C27.4313 47.6853 28.0509 48 28.7497 48C29.4485 48 30.0681 47.6853 30.4952 47.1975C30.9222 47.6853 31.5419 48 32.2406 48C32.9394 48 33.559 47.6853 33.9861 47.1975C34.4131 47.6853 35.0328 48 35.7315 48C36.4303 48 37.0499 47.6853 37.477 47.1975C37.904 47.6853 38.5237 48 39.2224 48C39.9212 48 40.5408 47.6853 40.9679 47.1975C41.3949 47.6853 42.0146 48 42.7133 48C43.9968 48 45.0406 46.9583 45.0406 45.6774V29.2434L44.4192 28.3132ZM36.8748 13.177L42.6412 14.7465L42.1309 18.0585C40.1673 17.2101 38.0413 16.7363 35.9032 16.6626C36.1696 15.6778 36.3133 14.6518 36.3133 13.6049C36.3133 13.321 36.5984 13.1038 36.8748 13.177ZM35.5302 17.8128C37.7376 17.8425 39.9381 18.3383 41.9465 19.2528L41.6812 20.9721C41.5939 21.5371 41.5497 22.1148 41.5497 22.6908C41.5497 24.9286 42.2072 27.095 43.4511 28.9577L43.877 29.5953V31.7419H40.8061C40.6043 31.3965 40.2331 31.1613 39.8043 31.1613H36.3133C35.8845 31.1613 35.5133 31.3965 35.3115 31.7419H32.2406V29.7782C32.5984 29.37 32.8224 28.8422 32.8224 28.2581V27.9933C32.8224 27.7128 32.7724 27.4382 32.6741 27.1781L31.2003 23.2564C33.1942 21.8988 34.6877 19.9937 35.5302 17.8128ZM33.4043 44.5161C32.7625 44.5161 32.2406 43.9953 32.2406 43.3548V41.6129H35.3115C35.5133 41.9584 35.8845 42.1935 36.3133 42.1935H39.8043C40.2331 42.1935 40.6043 41.9584 40.8061 41.6129H43.877V44.5161H33.4043ZM29.5899 44.5161C29.79 44.173 29.9133 43.7799 29.9133 43.3548V30.4982C30.1007 30.547 30.2933 30.5806 30.4952 30.5806C30.6971 30.5806 30.8896 30.547 31.077 30.4982V43.3548C31.077 43.7799 31.2003 44.173 31.4005 44.5161H29.5899ZM17.1133 44.5161V41.6129H20.1842C20.3861 41.9584 20.7573 42.1935 21.1861 42.1935H24.677C25.1058 42.1935 25.477 41.9584 25.6789 41.6129H28.7497V43.3548C28.7497 43.9953 28.2278 44.5161 27.5861 44.5161H17.1133ZM20.0224 34.0645H17.1133V32.9032H20.0224V34.0645ZM20.1842 35.2258C20.3861 35.5713 20.7573 35.8065 21.1861 35.8065H24.677C25.1058 35.8065 25.477 35.5713 25.6789 35.2258H28.7497V38.129H25.6789C25.477 37.7835 25.1058 37.5484 24.677 37.5484H21.1861C20.7573 37.5484 20.3861 37.7835 20.1842 38.129H17.1133V35.2258H20.1842ZM21.1849 32.3226H21.1861H24.677V34.6452H21.1861L21.1849 32.3226ZM25.8406 32.9032H28.7497V34.0645H25.8406V32.9032ZM30.4952 24.6865L31.5849 27.5863C31.6338 27.7163 31.6588 27.8534 31.6588 27.9933V28.2581C31.6588 28.8985 31.1369 29.4194 30.4952 29.4194C29.8534 29.4194 29.3315 28.8985 29.3315 28.2581V27.9933C29.3315 27.8534 29.3565 27.7163 29.406 27.5857L30.4952 24.6865ZM35.1497 34.0645H32.2406V32.9032H35.1497V34.0645ZM35.1497 40.4516H32.2406V39.2903H35.1497V40.4516ZM25.8406 39.2903H28.7497V40.4516H25.8406V39.2903ZM24.677 38.7097V41.0323H21.1861L21.1849 38.7097H21.1861H24.677ZM20.0224 39.2903V40.4516H17.1133V39.2903H20.0224ZM36.3122 38.7097H36.3133H39.8043V41.0323H36.3133L36.3122 38.7097ZM40.9679 40.4516V39.2903H43.877V40.4516H40.9679ZM40.8061 38.129C40.6043 37.7835 40.2331 37.5484 39.8043 37.5484H36.3133C35.8845 37.5484 35.5133 37.7835 35.3115 38.129H32.2406V35.2258H35.3115C35.5133 35.5713 35.8845 35.8065 36.3133 35.8065H39.8043C40.2331 35.8065 40.6043 35.5713 40.8061 35.2258H43.877V38.129H40.8061ZM36.3122 32.3226H36.3133H39.8043V34.6452H36.3133L36.3122 32.3226ZM40.9679 34.0645V32.9032H43.877V34.0645H40.9679ZM24.1149 13.177C24.3954 13.1015 24.677 13.321 24.677 13.6049C24.677 14.6524 24.8207 15.6778 25.0872 16.6626C22.949 16.7363 20.823 17.2101 18.8594 18.0585L18.3491 14.7465L24.1149 13.177ZM17.5392 28.9577C18.7832 27.095 19.4406 24.9281 19.4406 22.6908C19.4406 22.1154 19.3964 21.5371 19.3085 20.9733L19.0432 19.2534C21.0517 18.3389 23.2521 17.843 25.4595 17.8134C26.302 19.9943 27.7955 21.8994 29.7894 23.257L28.3163 27.1775C28.2179 27.4382 28.1679 27.7128 28.1679 27.9933V28.2581C28.1679 28.8416 28.3919 29.3694 28.7497 29.7782V31.7419H25.6789C25.477 31.3965 25.1058 31.1613 24.677 31.1613H21.1861C20.7573 31.1613 20.3861 31.3965 20.1842 31.7419H17.1133V29.5953L17.5392 28.9577ZM18.277 46.8387C17.6352 46.8387 17.1133 46.3179 17.1133 45.6774H19.4406C19.4406 46.3179 18.9187 46.8387 18.277 46.8387ZM21.7679 46.8387C21.1261 46.8387 20.6043 46.3179 20.6043 45.6774H22.9315C22.9315 46.3179 22.4096 46.8387 21.7679 46.8387ZM25.2588 46.8387C24.6171 46.8387 24.0952 46.3179 24.0952 45.6774H26.4224C26.4224 46.3179 25.9005 46.8387 25.2588 46.8387ZM28.7497 46.8387C28.108 46.8387 27.5861 46.3179 27.5861 45.6774H29.9133C29.9133 46.3179 29.3915 46.8387 28.7497 46.8387ZM32.2406 46.8387C31.5989 46.8387 31.077 46.3179 31.077 45.6774H33.4043C33.4043 46.3179 32.8824 46.8387 32.2406 46.8387ZM35.7315 46.8387C35.0898 46.8387 34.5679 46.3179 34.5679 45.6774H36.8952C36.8952 46.3179 36.3733 46.8387 35.7315 46.8387ZM39.2224 46.8387C38.5807 46.8387 38.0588 46.3179 38.0588 45.6774H40.3861C40.3861 46.3179 39.8642 46.8387 39.2224 46.8387ZM42.7133 46.8387C42.0716 46.8387 41.5497 46.3179 41.5497 45.6774H43.877C43.877 46.3179 43.3551 46.8387 42.7133 46.8387Z" fill="white" fill-opacity="0.5"/>
</svg>
