<svg width="60" height="61" viewBox="0 0 60 61" fill="none" xmlns="http://www.w3.org/2000/svg">
<path d="M51.5999 32.3399C51.5953 31.242 51.183 30.1858 50.4445 29.3802C49.7059 28.5746 48.695 28.0783 47.6116 27.9895L45.3247 27.8118C42.9373 27.628 40.6037 27.0027 38.4401 25.967L38.3573 25.9244L38.43 25.8509C38.565 25.7145 38.6408 25.5296 38.6408 25.3367C38.6408 25.1438 38.565 24.9588 38.43 24.8224C38.295 24.6861 38.1118 24.6094 37.9209 24.6094C37.7299 24.6094 37.5468 24.6861 37.4118 24.8224L37.0081 25.2302L35.4953 24.4519L35.5502 24.3965C35.617 24.3289 35.6701 24.2488 35.7062 24.1605C35.7424 24.0723 35.761 23.9777 35.761 23.8822C35.761 23.7867 35.7424 23.6922 35.7062 23.6039C35.6701 23.5157 35.617 23.4355 35.5502 23.368C35.4833 23.3005 35.4039 23.2469 35.3166 23.2104C35.2292 23.1738 35.1356 23.155 35.0411 23.155C34.9465 23.155 34.8529 23.1738 34.7656 23.2104C34.6782 23.2469 34.5988 23.3005 34.532 23.368L34.1462 23.7577L32.6334 22.9794L32.6704 22.942C32.7372 22.8745 32.7903 22.7943 32.8264 22.7061C32.8626 22.6179 32.8812 22.5233 32.8812 22.4278C32.8812 22.3323 32.8626 22.2377 32.8264 22.1495C32.7903 22.0613 32.7372 21.9811 32.6704 21.9136C32.6035 21.846 32.5241 21.7925 32.4368 21.7559C32.3494 21.7194 32.2558 21.7006 32.1613 21.7006C32.0667 21.7006 31.9731 21.7194 31.8857 21.7559C31.7984 21.7925 31.719 21.846 31.6522 21.9136L31.2842 22.2853L30.1518 21.7027L26.7341 19.3612C26.4248 19.1492 26.0641 19.0264 25.6909 19.0059C25.3176 18.9854 24.9459 19.068 24.6157 19.2449C24.2854 19.4217 24.0091 19.6861 23.8164 20.0096C23.6237 20.3331 23.5219 20.7035 23.5219 21.0811V24.6095C23.5221 24.6499 23.5257 24.6903 23.5326 24.7302L22.7061 25.3796C22.2907 25.7059 21.8024 25.9243 21.284 26.0156C20.7656 26.1069 20.2329 26.0683 19.7327 25.9033C19.2325 25.7382 18.78 25.4518 18.415 25.0689C18.0499 24.6861 17.7834 24.2187 17.6388 23.7076L17.5422 23.3662C17.3568 22.7112 16.9753 22.1303 16.4499 21.7032C15.9246 21.276 15.2813 21.0236 14.6082 20.9805C13.9352 20.9375 13.2655 21.1059 12.691 21.4627C12.1165 21.8195 11.6654 22.3471 11.3997 22.9732C10.3662 25.4068 10.2518 28.1387 11.0782 30.6518C10.7304 30.8458 10.4557 31.1505 10.2968 31.5184C10.138 31.8864 10.104 32.297 10.2 32.6865L10.4856 33.8406L9.02062 35.3198C8.80805 35.5345 8.64432 35.7934 8.54084 36.0785C8.43736 36.3636 8.3966 36.6681 8.42139 36.9707C8.44618 37.2733 8.53594 37.5668 8.68442 37.8309C8.83289 38.0949 9.03652 38.3231 9.28115 38.4996L13.0241 41.2001C13.1462 41.2882 13.2925 41.3356 13.4426 41.3356H22.1646C22.6954 41.3349 23.2189 41.2101 23.6939 40.9709L25.7146 39.9504L28.5314 41.0885C28.9352 41.2521 29.3663 41.336 29.8014 41.3356H33.2787C37.3895 41.3334 41.4308 40.2641 45.0147 38.2303L49.978 35.4102C50.4641 35.1334 50.8698 34.7324 51.1542 34.2474C51.4386 33.7624 51.5919 33.2104 51.5987 32.6467C51.5995 32.6355 51.5999 32.6233 51.5999 32.6094V32.3399ZM29.4923 25.1237C29.5592 25.1912 29.6385 25.2448 29.7259 25.2813C29.8132 25.3179 29.9069 25.3367 30.0014 25.3367C30.096 25.3367 30.1896 25.3179 30.2769 25.2813C30.3643 25.2448 30.4437 25.1912 30.5105 25.1237L31.5627 24.0609L33.0755 24.8392L32.3721 25.5497C32.2371 25.6861 32.1613 25.871 32.1613 26.0639C32.1613 26.2568 32.2371 26.4418 32.3721 26.5781C32.5071 26.7145 32.6903 26.7911 32.8812 26.7911C33.0722 26.7911 33.2553 26.7145 33.3903 26.5781L34.4247 25.5333L35.9375 26.3117L35.2519 27.0041C35.1851 27.0716 35.132 27.1518 35.0959 27.24C35.0597 27.3283 35.0411 27.4228 35.0411 27.5184C35.0411 27.6139 35.0597 27.7084 35.0959 27.7967C35.132 27.8849 35.1851 27.9651 35.2519 28.0326C35.3188 28.1001 35.3982 28.1537 35.4855 28.1902C35.5729 28.2268 35.6665 28.2456 35.761 28.2456C35.8556 28.2456 35.9492 28.2268 36.0365 28.1902C36.1239 28.1537 36.2033 28.1001 36.2701 28.0326L37.2871 27.0054L37.7963 27.2674L37.8149 27.2765C38.7499 27.7236 39.7162 28.1007 40.706 28.4047L39.8628 28.9728H35.921L26.2688 24.4231L27.9202 23.1257C28.1364 22.9567 28.3956 22.8531 28.6677 22.8269C28.9399 22.8007 29.2138 22.8531 29.4577 22.9778L30.2136 23.3667L29.4924 24.0952C29.4256 24.1627 29.3725 24.2429 29.3363 24.3311C29.3001 24.4194 29.2815 24.5139 29.2815 24.6094C29.2815 24.7049 29.3001 24.7995 29.3363 24.8878C29.3724 24.976 29.4255 25.0562 29.4923 25.1237ZM24.9618 21.0811C24.9618 20.9678 24.9923 20.8566 25.0502 20.7595C25.108 20.6624 25.1909 20.5831 25.29 20.53C25.3892 20.477 25.5007 20.4522 25.6127 20.4583C25.7247 20.4645 25.8329 20.5013 25.9258 20.5649L27.5325 21.6657C27.3569 21.7522 27.1906 21.8568 27.0361 21.9777L24.9618 23.6074V21.0811ZM12.5853 30.6202L12.4487 30.2063C12.0227 28.9144 11.8805 27.5442 12.0322 26.1912L12.9008 26.6925C13.8845 27.2621 14.7117 28.0709 15.3073 29.0454C15.903 30.0199 16.2482 31.1293 16.3116 32.2728C16.1192 32.1986 15.928 32.1206 15.7394 32.0359L12.5853 30.6202ZM49.272 34.1425L44.3088 36.9626C40.9404 38.874 37.1423 39.879 33.2787 39.8811H29.8014C29.5495 39.8814 29.2999 39.8328 29.0661 39.7381L25.9491 38.4787C25.8547 38.4406 25.7534 38.4231 25.6518 38.4273C25.5502 38.4316 25.4507 38.4576 25.3597 38.5035L23.0499 39.6701C22.7749 39.8085 22.4719 39.8808 22.1646 39.8811H13.6732L10.1185 37.316C10.044 37.2623 9.98205 37.1929 9.93686 37.1125C9.89167 37.0322 9.86436 36.9429 9.8568 36.8508C9.84925 36.7587 9.86164 36.6661 9.89312 36.5793C9.9246 36.4925 9.9744 36.4137 10.0391 36.3484L11.7922 34.5776C11.88 34.4887 11.9436 34.3784 11.9768 34.2573C12.0099 34.1362 12.0114 34.0086 11.9811 33.8867L11.5967 32.3332C11.5851 32.2861 11.5829 32.237 11.5903 32.189C11.5977 32.141 11.6145 32.095 11.6398 32.0537C11.6651 32.0123 11.6983 31.9765 11.7375 31.9483C11.7766 31.9201 11.821 31.9001 11.8679 31.8895L15.1543 33.3649C17.2591 34.309 19.5743 34.6715 21.8633 34.4153C23.7773 34.1964 25.7104 34.6009 27.3808 35.5698C28.9731 36.488 30.7748 36.9714 32.6083 36.9722H35.6914C37.5242 36.9723 39.3481 36.7129 41.1096 36.2015L49.8006 33.6789C49.6573 33.8681 49.4775 34.0258 49.272 34.1425ZM40.7119 34.8037C39.0797 35.2775 37.3897 35.5178 35.6914 35.5178H32.6083C31.0254 35.5171 29.4699 35.0999 28.0953 34.3072C26.1604 33.1848 23.921 32.7164 21.704 32.9701C20.3844 33.1174 19.0496 33.0339 17.7581 32.7233C17.7607 32.6983 17.762 32.6733 17.762 32.6482V32.6089C17.762 32.6033 17.762 32.5977 17.762 32.5921C17.7504 31.1364 17.3615 29.7091 16.6339 28.4525C15.9063 27.1958 14.8655 26.1537 13.6151 25.4298L12.3598 24.7053C12.3481 24.6985 12.336 24.693 12.3238 24.6871C12.4323 24.2984 12.5655 23.9172 12.7226 23.5459C12.8714 23.196 13.1237 22.9011 13.4449 22.7017C13.7661 22.5024 14.1405 22.4083 14.5168 22.4324C14.8931 22.4565 15.2527 22.5975 15.5465 22.8363C15.8402 23.075 16.0537 23.3997 16.1575 23.7658L16.2541 24.1072C16.4633 24.8471 16.8492 25.5239 17.3777 26.0781C17.9062 26.6323 18.5613 27.0471 19.2855 27.286C20.0097 27.5249 20.7808 27.5807 21.5313 27.4485C22.2818 27.3162 22.9888 27 23.5901 26.5275L24.992 25.4261L35.4566 30.3589C35.5519 30.4039 35.6558 30.4272 35.761 30.4272H40.0807C40.2228 30.4272 40.3618 30.3847 40.48 30.3051L42.5848 28.8877C43.4526 29.0681 44.3308 29.1931 45.2142 29.262L47.5012 29.4397C48.1767 29.4952 48.8115 29.7884 49.2949 30.2682C49.7784 30.7479 50.08 31.3838 50.147 32.065L40.7119 34.8037Z" fill="white" fill-opacity="0.5"/>
<path d="M32.162 32.6088H30.7221C30.5312 32.6088 30.3481 32.6854 30.213 32.8218C30.078 32.9582 30.0022 33.1432 30.0022 33.336C30.0022 33.5289 30.078 33.7139 30.213 33.8503C30.3481 33.9866 30.5312 34.0633 30.7221 34.0633H32.162C32.353 34.0633 32.5361 33.9866 32.6711 33.8503C32.8061 33.7139 32.882 33.5289 32.882 33.336C32.882 33.1432 32.8061 32.9582 32.6711 32.8218C32.5361 32.6854 32.353 32.6088 32.162 32.6088Z" fill="white" fill-opacity="0.5"/>
<path d="M35.7617 32.6088H35.0418C34.8508 32.6088 34.6677 32.6854 34.5327 32.8218C34.3977 32.9582 34.3218 33.1432 34.3218 33.336C34.3218 33.5289 34.3977 33.7139 34.5327 33.8503C34.6677 33.9866 34.8508 34.0633 35.0418 34.0633H35.7617C35.9527 34.0633 36.1358 33.9866 36.2708 33.8503C36.4058 33.7139 36.4817 33.5289 36.4817 33.336C36.4817 33.1432 36.4058 32.9582 36.2708 32.8218C36.1358 32.6854 35.9527 32.6088 35.7617 32.6088Z" fill="white" fill-opacity="0.5"/>
<path d="M39.3615 32.6088H38.6416C38.4506 32.6088 38.2675 32.6854 38.1325 32.8218C37.9975 32.9582 37.9216 33.1432 37.9216 33.336C37.9216 33.5289 37.9975 33.7139 38.1325 33.8503C38.2675 33.9866 38.4506 34.0633 38.6416 34.0633H39.3615C39.5525 34.0633 39.7356 33.9866 39.8706 33.8503C40.0056 33.7139 40.0815 33.5289 40.0815 33.336C40.0815 33.1432 40.0056 32.9582 39.8706 32.8218C39.7356 32.6854 39.5525 32.6088 39.3615 32.6088Z" fill="white" fill-opacity="0.5"/>
</svg>
