<svg width="60" height="60" viewBox="0 0 60 60" fill="none" xmlns="http://www.w3.org/2000/svg">
<path d="M25.2 27.6001C25.2 27.9315 24.9313 28.2 24.6001 28.2C24.2687 28.2 24 27.9315 24 27.6001C24 27.2687 24.2687 27 24.6001 27C24.9313 27 25.2 27.2687 25.2 27.6001Z" fill="white" fill-opacity="0.5"/>
<path d="M24.5999 36C24.2685 36 24 36.224 24 36.4999V37.3001C24 37.5762 24.2685 37.8 24.5999 37.8C24.9312 37.8 25.2 37.5762 25.2 37.3001V36.4999C25.2 36.224 24.9312 36 24.5999 36Z" fill="white" fill-opacity="0.5"/>
<path d="M23.6763 34.2004C23.6763 34.5316 23.9554 34.8 24.2999 34.8C24.6443 34.8 24.9237 34.5316 24.9237 34.2004V33.7342C24.9727 33.7172 25.0214 33.6984 25.0698 33.6769L27.0918 32.7689C27.7649 32.4675 28.2 31.8113 28.2 31.097V26.6713C28.2 25.8599 27.5137 25.2 26.6695 25.2H21.9299C21.0863 25.2 20.4 25.8602 20.4 26.6713V31.097C20.4 31.8113 20.8351 32.4675 21.5074 32.7689L23.5312 33.6772C23.5789 33.6984 23.6273 33.7172 23.6763 33.7342V34.2004ZM21.6472 26.6713C21.6472 26.5214 21.774 26.3997 21.9299 26.3997H26.6695C26.8255 26.3997 26.9523 26.5214 26.9523 26.6713V28.425L24.7771 29.306C24.4756 29.4284 24.1233 29.4267 23.8218 29.3058L21.6472 28.425V26.6713ZM22.0346 31.6816C21.7992 31.5765 21.6472 31.3469 21.6472 31.097V29.7266C21.6472 29.7266 23.3367 30.4111 23.3373 30.4111C23.9478 30.6584 24.6514 30.6592 25.2622 30.4116L26.9523 29.7269V31.097C26.9523 31.3469 26.8002 31.5765 26.5643 31.6821L24.5431 32.5896C24.3894 32.6582 24.2093 32.658 24.0577 32.5904L22.0346 31.6816Z" fill="white" fill-opacity="0.5"/>
<path d="M25.2 39.4999C25.2 39.224 24.9312 39 24.5999 39C24.2685 39 24 39.224 24 39.4999V40.2998C24 40.5762 24.2685 40.8 24.5999 40.8C24.9312 40.8 25.2 40.5762 25.2 40.2998V39.4999Z" fill="white" fill-opacity="0.5"/>
<path d="M35.3999 39C35.0688 39 34.8 39.224 34.8 39.4999V40.2998C34.8 40.5762 35.0688 40.8 35.3999 40.8C35.7315 40.8 36 40.5762 36 40.2998V39.4999C36 39.224 35.7315 39 35.3999 39Z" fill="white" fill-opacity="0.5"/>
<path d="M35.3999 36C35.0688 36 34.8 36.224 34.8 36.4999V37.3001C34.8 37.5762 35.0688 37.8 35.3999 37.8C35.7315 37.8 36 37.5762 36 37.3001V36.4999C36 36.224 35.7315 36 35.3999 36Z" fill="white" fill-opacity="0.5"/>
<path d="M36 27.6001C36 27.9315 35.7312 28.2 35.3998 28.2C35.0683 28.2 34.8 27.9315 34.8 27.6001C34.8 27.2687 35.0683 27 35.3998 27C35.7312 27 36 27.2687 36 27.6001Z" fill="white" fill-opacity="0.5"/>
<path d="M45.1911 45.4132C45.4511 46.2992 46.3945 46.8621 47.3012 46.673L50.1584 46.0788C51.0598 45.8911 51.6761 45.0605 51.5924 44.1468C51.5137 43.2823 51.0122 38.8555 50.8244 37.5265C50.7755 37.1817 50.4559 36.9416 50.1095 36.9902C49.7634 37.0386 49.5225 37.3574 49.5714 37.7017C49.7309 38.8331 49.8786 39.9887 50.0107 41.1449L45.5296 42.0767L41.6505 28.8692C41.7514 28.0905 42.428 23.6325 44.8715 21.9938C45.2065 21.7689 45.593 21.5909 45.9916 21.493C46.7808 23.8877 48.1046 28.4965 49.1909 35.1947C49.2467 35.5382 49.5716 35.7715 49.9167 35.716C50.2617 35.6605 50.496 35.337 50.4405 34.9938C49.2565 27.6936 47.7884 22.828 47.0185 20.5775C46.6783 19.5815 46.0492 18.7386 45.1999 18.1397C43.0917 16.6532 41.0418 15.8027 40.1594 15.4731C40.127 14.727 39.8358 13.9998 39.3053 13.4435C37.5152 11.5659 35.3238 11.4071 35.2316 11.4013C35.2239 11.4005 35.2168 11.401 35.2091 11.401C35.2033 11.4005 35.1972 11.4 35.1914 11.4H24.8084C24.802 11.4 24.7962 11.4005 24.7901 11.401C24.783 11.401 24.7756 11.4005 24.7682 11.4013C24.6757 11.4068 22.4843 11.5659 20.6944 13.4435C20.1637 13.9998 19.8728 14.727 19.8401 15.4731C18.9574 15.8027 16.9081 16.6532 14.7996 18.1397C13.9503 18.7386 13.3215 19.5818 12.981 20.5783C12.7091 21.3728 12.2843 22.691 11.803 24.4579C11.7118 24.7934 11.9108 25.1396 12.2484 25.2306C12.5855 25.3218 12.9332 25.1233 13.0246 24.7877C13.4055 23.3885 13.75 22.2781 14.0084 21.493C14.0145 21.4946 14.0208 21.4959 14.0272 21.4972C15.1048 21.77 15.9539 22.5837 16.5462 23.4889C17.8523 25.4851 18.2716 28.2696 18.349 28.8697L14.4705 42.0767L9.98907 41.1449C10.552 36.2212 11.357 31.5624 12.3844 27.2891C12.4658 26.9509 12.2563 26.6108 11.9166 26.5298C11.5766 26.4488 11.2352 26.6576 11.1539 26.9958C9.79859 32.6307 8.93707 38.3789 8.40764 44.1466C8.32363 45.0605 8.93998 45.8911 9.84139 46.0788L12.6986 46.673C13.6097 46.8626 14.5473 46.3037 14.8089 45.4132L18.1915 33.897C18.1741 36.7438 18.2734 40.5137 18.7255 44.4382C18.819 45.2509 18.9262 46.051 19.0433 46.8155C19.2018 47.8496 20.0797 48.6 21.1309 48.6H38.8692C39.9204 48.6 40.7983 47.8494 40.9565 46.8155C41.0735 46.0525 41.1805 45.2527 41.2746 44.4382C41.7234 40.541 41.8209 36.7459 41.8035 33.8792C41.8032 33.8789 45.1904 45.4113 45.1911 45.4132ZM49.8995 44.8454C49.8995 44.8454 47.0436 45.4392 47.0418 45.4397C46.7728 45.4958 46.4857 45.3314 46.4056 45.0597L45.886 43.29L50.1491 42.4034C50.2141 43.0164 50.2749 43.639 50.332 44.2615C50.3573 44.5376 50.1716 44.7891 49.8995 44.8454ZM40.3758 28.9694C40.3814 29.0415 40.8942 36.1121 40.0789 43.7365H36.2471V42.8279C36.2471 42.4796 35.9636 42.198 35.6141 42.198C35.2649 42.198 34.9814 42.4796 34.9814 42.8279V43.7365H30.6329V19.7987C30.6453 19.8093 30.6574 19.819 30.6701 19.8298C31.0907 20.188 31.4569 20.6164 31.7121 21.1072C31.879 21.4273 32.023 21.7673 32.2677 22.0393C32.8291 22.6634 33.7828 22.8293 34.5222 22.4288C36.6077 21.2997 37.9884 19.8921 38.8943 18.6113C41.0926 19.506 42.711 20.8053 43.4729 21.4933C40.9676 23.8364 40.425 28.4139 40.3795 28.8384C40.3787 28.845 40.3732 28.9323 40.3758 28.9694ZM24.3857 42.1977C24.0361 42.1977 23.7529 42.4796 23.7529 42.8276V43.7365H19.9209C19.1199 36.2417 19.6026 29.2677 19.6226 28.9828C19.6255 28.9415 19.6269 28.9005 19.6226 28.8592C19.5965 28.602 19.0834 23.8842 16.5272 21.4933C17.2888 20.8053 18.907 19.506 21.1058 18.6113C22.0117 19.8921 23.392 21.2994 25.4773 22.4288C26.413 22.9353 27.6322 22.5098 28.0534 21.5417C28.3458 20.8697 28.8063 20.2753 29.3672 19.804V43.7365H25.0186V42.8276C25.0186 42.4796 24.7352 42.1977 24.3857 42.1977ZM29.8099 17.7292C28.098 16.4583 26.2503 14.7699 25.5956 12.6766C25.594 12.6711 25.5925 12.6656 25.5909 12.6598H34.4092C34.4076 12.665 34.4063 12.67 34.4047 12.6753C33.7521 14.7678 31.9023 16.4476 30.1978 17.7234C30.188 17.7305 30.0033 17.8665 29.9996 17.8686C29.9978 17.8672 29.8171 17.7344 29.8099 17.7292ZM45.5158 20.3132C45.5082 20.3153 44.8215 20.5572 44.5111 20.7306C43.7833 20.0441 42.0468 18.5718 39.5745 17.5277C39.6691 17.3562 39.9605 16.7484 39.9568 16.7471C40.877 17.109 42.6674 17.8983 44.4686 19.1681C44.899 19.4716 45.2535 19.8603 45.5158 20.3132ZM38.3873 14.3109C39.2934 15.2611 38.712 16.5827 38.1062 17.5209C37.0711 19.1236 35.5946 20.4147 33.9178 21.3221C33.6237 21.4812 33.2404 21.3457 33.108 21.0412C32.6838 20.0665 31.9924 19.2357 31.1436 18.5981C31.1428 18.5971 31.1417 18.596 31.1404 18.5955C31.8204 18.0766 32.8275 17.2345 33.7368 16.1877C34.6047 15.1886 35.366 14.0519 35.6963 12.7574C36.3396 12.9154 37.4394 13.3165 38.3873 14.3109ZM21.6122 14.3109C22.5604 13.3162 23.661 12.9152 24.3038 12.7574C24.3051 12.7626 24.3067 12.7681 24.308 12.7737C24.9301 15.1794 26.9229 17.1403 28.8528 18.5902C28.8546 18.5918 28.8573 18.5939 28.8594 18.5955C28.8583 18.5966 28.857 18.5971 28.856 18.5981C28.0047 19.2144 27.3065 20.0725 26.8936 21.038C26.8931 21.0388 26.8925 21.0399 26.892 21.0412C26.7599 21.3473 26.3768 21.4814 26.0823 21.3221C24.0507 20.2224 22.3057 18.5426 21.2941 16.4583C20.9544 15.7577 21.0709 14.879 21.6122 14.3109ZM15.5314 19.1681C17.3327 17.8983 19.1228 17.109 20.0432 16.7471C20.0453 16.754 20.0488 16.7611 20.0514 16.7679C20.0704 16.8171 20.3925 17.5417 20.4255 17.5274C17.9532 18.5718 16.2162 20.0441 15.4886 20.73C15.1772 20.5565 14.8424 20.4158 14.4837 20.3137C14.746 19.8606 15.1005 19.4716 15.5314 19.1681ZM13.5944 45.0594C13.5157 45.3264 13.2364 45.4976 12.9577 45.4397L10.1003 44.8454C9.82844 44.7891 9.64272 44.5376 9.66808 44.2607C9.72461 43.64 9.78591 43.0177 9.85063 42.4034L14.1141 43.29L13.5944 45.0594ZM20.2942 46.6254C20.2136 46.0973 20.1373 45.5515 20.0675 44.9963H29.3672V47.3397H21.1309C20.7164 47.3397 20.3568 47.033 20.2942 46.6254ZM39.7053 46.6254C39.6432 47.033 39.2834 47.3397 38.8692 47.3397H30.6329V44.9963H39.9325C39.8622 45.5526 39.7862 46.0978 39.7053 46.6254Z" fill="white" fill-opacity="0.5"/>
<path d="M37.5877 25.2H33.2125C32.4336 25.2 31.8 25.8602 31.8 26.6713V31.097C31.8 31.8113 32.2016 32.4675 32.8224 32.7689C32.8224 32.7689 34.7793 33.7172 34.8243 33.7342V34.2004C34.8243 34.5316 35.0821 34.8 35.3999 34.8C35.7181 34.8 35.9757 34.5316 35.9757 34.2004V33.7342C36.0212 33.7172 37.9771 32.7689 37.9771 32.7689C38.5986 32.4675 39 31.8113 39 31.097V26.6713C39 25.8602 38.3662 25.2 37.5877 25.2ZM32.9515 26.6713C32.9515 26.5214 33.0688 26.3997 33.2125 26.3997H37.5877C37.7315 26.3997 37.8485 26.5214 37.8485 26.6713V28.425L35.8404 29.306C35.5633 29.4282 35.2357 29.4282 34.9588 29.3058L32.9515 28.425V26.6713ZM37.4904 31.6821L35.6246 32.5896C35.4823 32.6582 35.3167 32.6577 35.1766 32.5899L33.3091 31.6816C33.0919 31.5765 32.9515 31.3469 32.9515 31.097V29.7266L34.5113 30.4111C35.0759 30.6589 35.7239 30.6597 36.2882 30.4116L37.8485 29.7269V31.097C37.8485 31.3469 37.7081 31.5765 37.4904 31.6821Z" fill="white" fill-opacity="0.5"/>
</svg>
