<svg width="60" height="60" viewBox="0 0 60 60" fill="none" xmlns="http://www.w3.org/2000/svg">
<path d="M49.98 28.4496H49.8234L42.4775 17.918C41.7429 16.865 40.3085 16.4985 39.1408 17.0658L35.9951 18.5946C34.9991 19.0788 34.6399 20.2959 35.2193 21.2245C35.7305 22.0436 36.7822 22.3469 37.6658 21.9295L39.8319 20.9067L45.0279 28.4496H42.6763V27.8246C42.6763 26.7509 41.7831 25.8774 40.6852 25.8774H31.4765C31.1268 25.8774 30.8437 26.1546 30.8437 26.4963C30.8437 26.8383 31.1268 27.1152 31.4765 27.1152H40.6852C41.085 27.1152 41.4103 27.4336 41.4103 27.8246V28.4496H18.5895V27.8246C18.5895 27.4336 18.9148 27.1152 19.3146 27.1152H28.5233C28.873 27.1152 29.1562 26.8383 29.1562 26.4963C29.1562 26.1546 28.873 25.8774 28.5233 25.8774H19.3146C18.2171 25.8774 17.3239 26.7509 17.3239 27.8246V28.4496H14.9719L20.1679 20.9067L22.334 21.9295C23.2176 22.3469 24.2693 22.0439 24.7805 21.2245C25.3599 20.2959 25.0007 19.0788 24.0047 18.5946L20.8591 17.0658C19.6913 16.4985 18.2569 16.865 17.5226 17.918L10.1764 28.4496H10.0198C9.12665 28.4496 8.3999 29.1601 8.3999 30.0336V40.2886C8.3999 41.8938 9.7354 43.1999 11.3768 43.1999H22.6606C24.2753 43.1999 25.6793 42.1308 26.0751 40.6L27.4954 35.1065C27.6882 34.3609 28.2083 33.7662 28.8819 33.4497C30.3545 32.7563 32.1053 33.5631 32.5045 35.1065L33.9247 40.6C34.3205 42.1308 35.7246 43.1999 37.3395 43.1999H48.6231C50.2644 43.1999 51.5999 41.8938 51.5999 40.2886V38.5735C51.5999 38.2318 51.3168 37.9546 50.9671 37.9546C50.6174 37.9546 50.3343 38.2318 50.3343 38.5735V40.2886C50.3343 41.2115 49.5667 41.9622 48.6231 41.9622H37.3395C36.305 41.9622 35.4055 41.2772 35.1521 40.2964L33.7315 34.8032C33.6112 34.338 33.4056 33.9122 33.134 33.5393H50.3343V35.6854C50.3343 36.0271 50.6174 36.3043 50.9671 36.3043C51.3168 36.3043 51.5999 36.0271 51.5999 35.6854C51.5999 34.857 51.5999 30.8607 51.5999 30.0339C51.5999 29.1601 50.8732 28.4496 49.98 28.4496ZM40.8263 20.1347C40.5089 19.6735 39.883 19.5078 39.3708 19.7495L37.1154 20.8149C36.8211 20.9541 36.4701 20.8529 36.3 20.5796C36.1059 20.2691 36.2255 19.8646 36.5584 19.7028L39.704 18.1743C40.3085 17.8803 41.0514 18.0702 41.4317 18.6156L48.2912 28.4496H46.5542L40.8263 20.1347ZM18.5681 18.6156C18.9484 18.0702 19.6913 17.8807 20.2958 18.1743L23.4414 19.7028C23.7746 19.8649 23.8936 20.2695 23.6998 20.5796C23.5294 20.8529 23.179 20.9538 22.8844 20.8149L20.629 19.7499C20.1172 19.5078 19.4909 19.6735 19.1735 20.1347L13.4459 28.4496H11.7087L18.5681 18.6156ZM24.8481 40.2964C24.5943 41.2772 23.6948 41.9622 22.6606 41.9622H11.3768C10.4331 41.9622 9.66553 41.2115 9.66553 40.2886V33.5393H11.1348C11.4143 34.5572 12.3659 35.3092 13.4937 35.3092C14.6219 35.3092 15.5734 34.5572 15.8529 33.5393H26.8662C26.3227 34.2845 26.4077 34.2645 24.8481 40.2964ZM12.3167 32.9204C12.3167 32.2857 12.8448 31.7694 13.4937 31.7694C14.1427 31.7694 14.671 32.2857 14.671 32.9204C14.671 33.5551 14.1427 34.0711 13.4937 34.0711C12.8448 34.0711 12.3167 33.5551 12.3167 32.9204ZM50.3343 32.3012H31.5991C30.6106 31.8599 29.4366 31.839 28.4011 32.3012H15.8536C15.5688 31.2617 14.5965 30.5313 13.4937 30.5313C12.3807 30.5313 11.416 31.272 11.1342 32.3012H9.66553V30.0336C9.66553 29.846 9.82769 29.6874 10.0198 29.6874H49.98C50.1721 29.6874 50.3343 29.846 50.3343 30.0336V32.3012Z" fill="white" fill-opacity="0.5"/>
</svg>
