<svg width="60" height="60" viewBox="0 0 60 60" fill="none" xmlns="http://www.w3.org/2000/svg">
<path d="M36.323 19.2001H22.4768C21.3299 19.2001 20.3999 20.1672 20.3999 21.3601V38.64C20.3999 39.8329 21.3299 40.8 22.4768 40.8H36.323C37.47 40.8 38.3999 39.8329 38.3999 38.64V21.3601C38.3999 20.1672 37.47 19.2001 36.323 19.2001ZM37.0153 38.64C37.0153 39.0377 36.7053 39.3601 36.323 39.3601H22.4768C22.0945 39.3601 21.7845 39.0377 21.7845 38.64V21.3601C21.7845 20.9624 22.0945 20.6401 22.4768 20.6401H36.323C36.7053 20.6401 37.0153 20.9624 37.0153 21.3601V38.64Z" fill="white" fill-opacity="0.5"/>
<path d="M42.4865 28.6065C42.8806 28.6065 43.2 28.2945 43.2 27.9097V23.0323C43.2 22.6475 42.8806 22.3355 42.4865 22.3355H41.0595V20.2452C41.0543 18.7911 40.1247 17.4928 38.7277 16.9893C38.6698 16.9263 38.6009 16.8739 38.5242 16.8345C38.5002 16.8226 36.0649 15.5886 36.0649 13.9742V9.09681C36.0649 8.71202 35.7454 8.40004 35.3514 8.40004H22.5081C22.1141 8.40004 21.7946 8.71202 21.7946 9.09681V13.9742C21.7946 15.3266 20.0189 16.498 19.3336 16.8352C19.258 16.8743 19.19 16.9263 19.1332 16.9893C17.7358 17.4925 16.8056 18.7908 16.8 20.2452V39.7549C16.8053 41.209 17.7348 42.5073 19.1318 43.0108C19.1897 43.0737 19.2587 43.1261 19.3353 43.1656C19.3593 43.1775 21.7946 44.4115 21.7946 46.0258V50.9033C21.7946 51.2881 22.1141 51.6 22.5081 51.6H35.3514C35.7454 51.6 36.0649 51.2881 36.0649 50.9033V46.0258C36.0649 44.6735 37.8407 43.5021 38.526 43.1649C38.6016 43.1258 38.6695 43.0737 38.7263 43.0108C40.1237 42.5076 41.0539 41.2093 41.0595 39.7549V37.6646H42.4865C42.8806 37.6646 43.2 37.3526 43.2 36.9678V32.0904C43.2 31.7056 42.8806 31.3936 42.4865 31.3936H41.0595V28.6065H42.4865ZM41.773 23.7291V27.2129H41.0595V23.7291H41.773ZM23.2217 13.9742V9.79359H34.6379V13.9742C34.6964 15.048 35.1967 16.053 36.0248 16.7613H21.8347C22.6628 16.053 23.1631 15.048 23.2217 13.9742ZM34.6379 46.0258V50.2065H23.2217V46.0258C23.1631 44.9521 22.6628 43.9471 21.8347 43.2388H36.0248C35.1967 43.9471 34.6964 44.9521 34.6379 46.0258ZM39.6325 39.7549C39.6325 40.9093 38.674 41.8452 37.4919 41.8452H20.3676C19.1855 41.8452 18.2271 40.9093 18.2271 39.7549V20.2452C18.2271 19.0908 19.1855 18.1549 20.3676 18.1549H37.4919C38.674 18.1549 39.6325 19.0908 39.6325 20.2452V39.7549ZM41.773 32.7871V36.271H41.0595V32.7871H41.773Z" fill="white" fill-opacity="0.5"/>
<path d="M28.8001 22.8C24.8235 22.8 21.6001 26.0235 21.6001 30C21.6001 33.9765 24.8235 37.2 28.8001 37.2C32.7766 37.2 36 33.9765 36 30C35.9958 26.0252 32.7748 22.8042 28.8001 22.8ZM28.8001 35.76C25.6188 35.76 23.0401 33.1813 23.0401 30C23.0401 26.8187 25.6188 24.24 28.8001 24.24C31.9813 24.24 34.5601 26.8187 34.5601 30C34.5565 33.1795 31.9796 35.7565 28.8001 35.76Z" fill="white" fill-opacity="0.5"/>
<path d="M30.1828 27.7838L29.1134 28.8506C29.0135 28.822 28.9103 28.8071 28.8065 28.8056C28.7998 28.8056 28.7939 28.8056 28.7872 28.8056L27.5202 26.6997C27.4118 26.5123 27.2104 26.3977 26.9932 26.4001C26.7764 26.4027 26.5777 26.5217 26.4736 26.7116C26.3696 26.9016 26.3763 27.1328 26.4915 27.3164L27.7602 29.4258C27.6603 29.6018 27.607 29.8005 27.6061 30.0028C27.6061 30.664 28.1436 31.2 28.8065 31.2C29.4695 31.2 30.007 30.664 30.007 30.0028C30.0055 29.8993 29.9906 29.7965 29.9619 29.6968L31.0316 28.6302C31.259 28.3952 31.2558 28.022 31.0243 27.7911C30.7928 27.5602 30.4185 27.5569 30.1828 27.7838Z" fill="white" fill-opacity="0.5"/>
</svg>
