<svg width="36" height="36" fill="none" xmlns="http://www.w3.org/2000/svg"><path d="M12 30H7.5A1.5 1.5 0 016 28.5V24a1.5 1.5 0 00-3 0v4.5A4.5 4.5 0 007.5 33H12a1.5 1.5 0 100-3zM4.5 13.5A1.5 1.5 0 006 12V7.5A1.5 1.5 0 017.5 6H12a1.5 1.5 0 000-3H7.5A4.5 4.5 0 003 7.5V12a1.5 1.5 0 001.5 1.5zM28.5 3H24a1.5 1.5 0 000 3h4.5A1.5 1.5 0 0130 7.5V12a1.5 1.5 0 103 0V7.5A4.5 4.5 0 0028.5 3zM24 18a1.5 1.5 0 00-1.5-1.5h-3v-3a1.5 1.5 0 10-3 0v3h-3a1.5 1.5 0 100 3h3v3a1.5 1.5 0 103 0v-3h3A1.5 1.5 0 0024 18zm7.5 4.5A1.5 1.5 0 0030 24v4.5a1.5 1.5 0 01-1.5 1.5H24a1.5 1.5 0 100 3h4.5a4.5 4.5 0 004.5-4.5V24a1.5 1.5 0 00-1.5-1.5z" fill="#fff" fill-opacity=".1"/></svg>