<svg width="60" height="60" viewBox="0 0 60 60" fill="none" xmlns="http://www.w3.org/2000/svg">
<path d="M33 22.8C33.3312 22.8 33.6 22.5312 33.6 22.2C33.6 21.8688 33.3312 21.6 33 21.6C32.6688 21.6 32.4 21.8688 32.4 22.2C32.4 22.5312 32.6688 22.8 33 22.8Z" fill="white" fill-opacity="0.5"/>
<path d="M35.078 24.3055C36.2267 25.3617 37.2637 26.734 38.16 28.3848C38.3782 28.7868 38.8533 28.9216 39.2225 28.6793C39.5898 28.4381 39.7096 27.915 39.4903 27.511C38.5044 25.6958 37.3542 24.1774 36.0715 22.9984C35.7431 22.6966 35.2547 22.7445 34.9803 23.1055C34.7058 23.4666 34.7497 24.0037 35.078 24.3055Z" fill="white" fill-opacity="0.5"/>
<path d="M14.3478 50.4H45.6522C46.9468 50.4 48 49.3276 48 48.0094V44.3438C48 43.3109 47.3531 42.4291 46.4504 42.0957C46.4886 39.6213 46.2712 37.1787 45.8007 34.8255C45.455 33.0947 44.9711 31.4148 44.363 29.8316C44.3621 29.8291 44.3612 29.8266 44.36 29.8238C44.3596 29.8226 44.359 29.8213 44.3587 29.8198C42.202 24.2167 38.6289 20.1446 34.4373 18.4472C35.1071 17.5046 35.4783 16.3647 35.4783 15.1781C35.4783 12.1024 33.0207 9.60001 30 9.60001C26.9793 9.60001 24.5217 12.1024 24.5217 15.1781C24.5217 16.3647 24.8929 17.5046 25.563 18.4472C21.3748 20.1437 17.8032 24.2115 15.6462 29.8086C15.0311 31.4048 14.5423 33.1022 14.1934 34.8535C13.7269 37.1996 13.5111 39.6329 13.5493 42.0957C12.6469 42.4291 12 43.3109 12 44.3438V48.0094C12 49.3276 13.0532 50.4 14.3478 50.4ZM13.5652 48.0094V44.3438C13.5652 43.9042 13.9162 43.5469 14.3478 43.5469H19.8261V48.8063H14.3478C13.9162 48.8063 13.5652 48.4489 13.5652 48.0094ZM17.7727 31.6495C19.4926 33.2463 21.8034 33.2463 23.523 31.6495C24.6462 30.6067 26.0411 30.6067 27.164 31.6495C28.0239 32.4479 29.0315 32.847 30.0391 32.847C31.0467 32.847 32.0543 32.4479 32.9143 31.6495C34.0372 30.6067 35.4324 30.6067 36.5553 31.6495C38.2749 33.2463 40.5857 33.2463 42.3059 31.6492C42.5731 31.4005 42.8562 31.2112 43.1509 31.0805C43.4917 32.0414 43.7849 33.0372 44.0276 34.0563C43.0396 34.0824 42.0699 34.4924 41.2509 35.2532C40.1278 36.2959 38.7328 36.2959 37.61 35.2532C35.89 33.6563 33.5792 33.6563 31.8596 35.2532C30.7364 36.2959 29.3415 36.2959 28.2186 35.2532C26.4987 33.6563 24.1879 33.6563 22.4683 35.2532C21.3451 36.2959 19.9502 36.2959 18.8273 35.2532C17.9833 34.4694 16.9864 34.0591 15.9727 34.0544C16.2178 33.0247 16.5144 32.0202 16.8592 31.0518C17.1793 31.1841 17.4883 31.3855 17.7727 31.6495V31.6495ZM15.6324 35.6721C16.3756 35.5663 17.1224 35.8268 17.7727 36.4307C19.4926 38.0276 21.8034 38.0276 23.523 36.4307C24.6462 35.3879 26.0411 35.3879 27.164 36.4307C28.0239 37.2292 29.0315 37.6282 30.0391 37.6282C31.0467 37.6282 32.0543 37.2292 32.9143 36.4307C34.0372 35.3879 35.4324 35.3879 36.5553 36.4307C38.2749 38.0276 40.586 38.0276 42.3056 36.4307C42.9305 35.8502 43.6483 35.5862 44.3658 35.6619C44.7381 37.7048 44.9127 39.8153 44.887 41.9531H15.1127C15.087 39.8202 15.261 37.7129 15.6324 35.6721V35.6721ZM29.2174 43.5469V48.8063H21.3913V43.5469H29.2174ZM30.7826 43.5469H38.6087V48.8063H30.7826V43.5469ZM46.4348 48.0094C46.4348 48.4489 46.0838 48.8063 45.6522 48.8063H40.1739V43.5469H45.6522C46.0838 43.5469 46.4348 43.9042 46.4348 44.3438V48.0094ZM30 11.1938C32.1577 11.1938 33.913 12.9811 33.913 15.1781C33.913 17.3863 32.1531 19.1625 30 19.1625C27.8515 19.1625 26.087 17.3923 26.087 15.1781C26.087 12.9811 27.8423 11.1938 30 11.1938ZM26.7803 19.6904C27.7124 20.3802 28.8395 20.7563 30 20.7563C31.1605 20.7563 32.2876 20.3799 33.2197 19.6904C37.0771 20.9763 40.4408 24.5439 42.5758 29.5985C42.1041 29.8014 41.656 30.0953 41.2509 30.4719C40.1281 31.5147 38.7328 31.5147 37.61 30.4719C35.8904 28.875 33.5795 28.875 31.8596 30.4719C30.7368 31.5147 29.3415 31.5147 28.2186 30.4719C26.499 28.875 24.1882 28.875 22.4683 30.4719C21.3454 31.5144 19.9502 31.5147 18.8273 30.4719C18.4024 30.0769 17.9319 29.7734 17.4367 29.5704C19.572 24.5308 22.9305 20.9738 26.7803 19.6904V19.6904Z" fill="white" fill-opacity="0.5"/>
</svg>
