<svg width="60" height="60" viewBox="0 0 60 60" fill="none" xmlns="http://www.w3.org/2000/svg">
<path d="M51.5272 22.4818C51.4643 22.3755 49.9581 19.8494 47.5191 17.2866C44.1805 13.7787 40.8528 12 37.6285 12H34.8276C34.4408 12 34.1274 12.3134 34.1274 12.7002C34.1274 14.9762 32.2758 16.8278 29.9998 16.8278C27.7238 16.8278 25.8722 14.9762 25.8722 12.7002C25.8722 12.3134 25.5588 12 25.172 12H22.3711C19.1467 12 15.8189 13.7787 12.4805 17.2866C10.0412 19.8494 8.53517 22.3756 8.47232 22.4818C8.38768 22.6249 8.35668 22.7935 8.38481 22.9575C8.40533 23.0765 8.93582 25.9096 13.1188 28.9518C13.3597 29.1269 13.6852 29.1306 13.9298 28.9608L16.9825 26.8426C16.9842 26.8415 16.9859 26.8402 16.9876 26.8391L17.2512 26.6562C17.1641 30.1706 16.9468 39.7056 16.9468 47.2999C16.9468 47.6867 17.2602 48.0001 17.647 48.0001H42.3524C42.7392 48.0001 43.0526 47.6867 43.0526 47.2999C43.0526 39.7054 42.8354 30.1705 42.7483 26.6562L43.0123 26.8394C43.0139 26.8405 43.0151 26.8415 43.0167 26.8425L46.0696 28.9608C46.3144 29.1305 46.6395 29.1269 46.8806 28.9518C51.0636 25.9096 51.594 23.0765 51.6146 22.9575C51.6429 22.7936 51.6119 22.6251 51.5272 22.4818ZM13.5459 27.5227C10.8501 25.4473 10.0404 23.5821 9.83039 22.9488C10.0265 22.6393 10.4054 22.0608 10.9366 21.3356C11.6185 22.595 12.9215 24.3556 15.3899 26.2432L13.5459 27.5227ZM46.4534 27.5227L44.6091 26.243C45.2515 25.7513 45.8473 25.2441 46.3858 24.728C46.665 24.4603 46.6744 24.0172 46.4069 23.7379C46.1393 23.4587 45.6961 23.4495 45.4169 23.7168C44.8165 24.2922 44.1383 24.8574 43.3971 25.4018L42.4123 24.7185C42.1954 24.5682 41.9124 24.5524 41.68 24.6778C41.4478 24.8035 41.3059 25.0489 41.3131 25.3128C41.3164 25.4343 41.6359 37.267 41.6517 46.5998H18.3479C18.3636 37.2674 18.6831 25.4343 18.6864 25.3128C18.6936 25.049 18.5518 24.8035 18.3195 24.6778C18.0872 24.5523 17.804 24.568 17.5873 24.7185L16.6024 25.4019C13.5572 23.1648 12.3427 21.1247 11.8882 20.0982C14.0829 17.3781 17.6919 13.7993 21.7038 13.4323C21.8304 14.8853 22.3325 16.2703 23.1769 17.4749C23.399 17.7915 23.8355 17.8683 24.1523 17.6463C24.4689 17.4243 24.5456 16.9877 24.3237 16.671C23.6391 15.6946 23.2242 14.5756 23.1062 13.4005H24.5158C24.8611 16.1192 27.1888 18.2283 29.9997 18.2283C32.8106 18.2283 35.1383 16.1192 35.4836 13.4005H36.8931C36.541 16.8933 33.584 19.6287 29.9998 19.6287C28.5455 19.6287 27.1523 19.1814 25.971 18.335C25.6567 18.1098 25.2193 18.1819 24.994 18.4965C24.7688 18.8108 24.841 19.2484 25.1555 19.4735C26.576 20.4912 28.2512 21.0293 30 21.0293C34.3458 21.0293 37.9243 17.6834 38.2963 13.4326C42.3082 13.7997 45.917 17.3786 48.1116 20.0985C47.932 20.5084 47.6989 20.9299 47.4027 21.3785C47.1896 21.7013 47.2785 22.1356 47.6012 22.3488C47.7199 22.4272 47.8539 22.4648 47.9864 22.4648C48.2138 22.4648 48.4367 22.3541 48.5713 22.1503C48.755 21.8721 48.9175 21.6014 49.0625 21.3351C49.5937 22.0602 49.9727 22.6387 50.169 22.9484C49.9565 23.5877 49.1452 25.4505 46.4534 27.5227Z" fill="white" fill-opacity="0.5"/>
</svg>
