<svg width="60" height="60" viewBox="0 0 60 60" fill="none" xmlns="http://www.w3.org/2000/svg">
<path d="M50.7153 26.3688C50.7153 25.0482 50.0278 23.8858 48.9926 23.2183C49.4107 22.6508 49.6461 21.9569 49.6461 21.2403C49.6461 19.6085 48.4659 18.2482 46.9145 17.9657C46.9374 17.8072 46.9496 17.6465 46.9496 17.4841C46.9496 15.6483 45.4561 14.1548 43.6203 14.1548C43.4332 14.1548 43.2499 14.171 43.0711 14.2008C43.0003 12.4271 41.536 11.0057 39.7452 11.0057C39.3893 11.0057 39.0466 11.0624 38.7248 11.1663C38.4564 9.59791 37.0879 8.40004 35.444 8.40004C34.3363 8.40004 33.3539 8.94426 32.7484 9.77881H27.2509C26.6453 8.94426 25.6629 8.40004 24.5552 8.40004C22.9113 8.40004 21.5429 9.59791 21.2745 11.1664C20.9527 11.0625 20.61 11.0058 20.2541 11.0058C18.4633 11.0058 16.9989 12.4272 16.9282 14.2009C16.7494 14.1711 16.5661 14.1548 16.379 14.1548C14.5433 14.1548 13.0497 15.6484 13.0497 17.4842C13.0497 17.6466 13.0619 17.8073 13.0848 17.9657C11.5334 18.2482 10.3532 19.6086 10.3532 21.2403C10.3532 21.9571 10.5886 22.651 11.0067 23.2183C9.97147 23.8858 9.28398 25.0483 9.28398 26.3689C9.28398 27.6167 9.89477 28.7543 10.8897 29.4446C10.5254 30.0223 10.3136 30.7054 10.3136 31.4373C10.3136 33.4307 11.8785 35.065 13.8443 35.1775C13.8229 35.3392 13.8108 35.5037 13.8108 35.6712C13.8108 37.7372 15.4916 39.418 17.5576 39.418C17.9965 39.418 18.4256 39.3423 18.8303 39.1958C19.2519 40.8033 20.717 41.9928 22.4549 41.9928C24.1729 41.9928 25.6236 40.8301 26.0638 39.2506C27.1617 39.8106 28.2638 40.1359 29.3668 40.2259V42.6864C28.8355 42.3902 28.1196 42.138 27.2195 42.138C25.3057 42.138 23.8066 43.6161 23.8066 45.503C23.8066 46.5888 24.3294 47.7003 25.3186 48.7173C25.5621 48.9678 25.9627 48.9735 26.2134 48.7296C26.4639 48.4859 26.4694 48.0853 26.2257 47.8348C25.4711 47.059 25.0722 46.2526 25.0722 45.503C25.0722 44.3062 25.9952 43.4036 27.2194 43.4036C28.7078 43.4036 29.4673 44.3472 29.4957 44.3831C29.6154 44.5406 29.8018 44.6331 29.9996 44.6331C30.1975 44.6331 30.3839 44.5406 30.5035 44.3831C30.511 44.3733 31.2894 43.4036 32.7799 43.4036C34.0041 43.4036 34.9271 44.3062 34.9271 45.503C34.9271 47.1288 33.1356 48.8602 29.9997 50.2754C29.3337 49.9748 28.7212 49.6571 28.1757 49.3289C27.8761 49.1489 27.4874 49.2456 27.3072 49.545C27.1271 49.8445 27.2238 50.2333 27.5233 50.4135C28.1843 50.8111 28.9324 51.1927 29.7469 51.5477C29.8276 51.5828 29.9137 51.6004 29.9998 51.6004C30.0858 51.6004 30.172 51.5828 30.2527 51.5477C32.4711 50.5806 36.1928 48.5093 36.1928 45.503C36.1928 43.6161 34.6937 42.138 32.7799 42.138C31.8799 42.138 31.1639 42.3902 30.6326 42.6864V40.2259C31.7355 40.136 32.8377 39.8106 33.9356 39.2506C34.3759 40.8302 35.8266 41.9928 37.5446 41.9928C39.2825 41.9928 40.7476 40.8034 41.1692 39.1959C41.5739 39.3424 42.003 39.4181 42.4418 39.4181C42.8759 39.4181 43.3021 39.344 43.7089 39.1978C44.0377 39.0796 44.2086 38.7172 44.0904 38.3882C43.9722 38.0594 43.6093 37.8886 43.2808 38.0068C43.0118 38.1035 42.7296 38.1525 42.4419 38.1525C42.0292 38.1525 41.6301 38.0499 41.2713 37.8569C41.1696 36.876 40.6873 36.0068 39.9758 35.3984C40.1121 34.1581 41.1658 33.19 42.4419 33.19C43.8101 33.19 44.9231 34.3031 44.9231 35.6713C44.9231 35.9963 44.8609 36.3129 44.7379 36.6124C44.6053 36.9357 44.7598 37.3055 45.0831 37.4381C45.1618 37.4704 45.2431 37.4856 45.3232 37.4856C45.5722 37.4856 45.8084 37.3375 45.9088 37.0929C46.0946 36.6402 46.1888 36.1618 46.1888 35.6712C46.1888 35.5038 46.1766 35.3392 46.1553 35.1775C48.121 35.065 49.6859 33.4308 49.6859 31.4373C49.6859 30.7054 49.4742 30.0223 49.1098 29.4446C50.1045 28.7541 50.7153 27.6166 50.7153 26.3688ZM48.2518 28.4927C47.6143 27.9909 46.8112 27.6902 45.9388 27.6902C45.5991 27.6902 45.2703 27.7365 44.9571 27.8216C44.6521 27.4012 44.4871 26.8972 44.4871 26.3688C44.4871 25.0006 45.6002 23.8875 46.9683 23.8875C48.3365 23.8875 49.4496 25.0006 49.4496 26.3688C49.4497 27.2499 48.9898 28.0482 48.2518 28.4927ZM48.3805 21.2403C48.3805 21.8016 48.1593 22.3225 47.7666 22.7084C47.5092 22.6523 47.2424 22.6219 46.9684 22.6219C46.3617 22.6219 45.7887 22.7678 45.2813 23.0249C44.6488 22.6592 44.2531 21.9864 44.2531 21.2403C44.2531 20.0901 45.1933 19.1765 46.3168 19.1765C47.4547 19.1765 48.3805 20.1023 48.3805 21.2403ZM45.6839 17.4841C45.6839 17.6546 45.6631 17.8217 45.6225 17.9842C44.7029 18.1801 43.9229 18.7567 43.4554 19.5407C42.3943 19.4563 41.5566 18.5665 41.5566 17.4841C41.5566 16.3462 42.4824 15.4204 43.6203 15.4204C44.7582 15.4204 45.6839 16.3462 45.6839 17.4841ZM41.8088 14.3352C41.8088 14.4635 41.7956 14.5909 41.772 14.7165C41.2194 15.0868 40.784 15.618 40.532 16.2425C40.2837 16.3447 40.0157 16.3989 39.7451 16.3989C38.6072 16.3989 37.6814 15.473 37.6814 14.3352C37.6814 13.1973 38.6072 12.2714 39.7451 12.2714C40.883 12.2714 41.8088 13.1972 41.8088 14.3352ZM35.444 9.66567C36.6356 9.66567 37.5904 10.6807 37.501 11.8782C37.0361 12.3032 36.6919 12.8582 36.5263 13.4849C36.2015 13.6864 35.8319 13.7931 35.444 13.7931C34.3061 13.7931 33.3803 12.8673 33.3803 11.7294C33.3803 10.5915 34.3061 9.66567 35.444 9.66567ZM32.1859 11.0444C32.1395 11.2656 32.1146 11.4947 32.1146 11.7294C32.1146 11.9673 32.1402 12.1994 32.1879 12.4234H27.8113C27.8589 12.1995 27.8845 11.9674 27.8845 11.7294C27.8845 11.4947 27.8598 11.2656 27.8133 11.0444H32.1859ZM24.5552 9.66567C25.6931 9.66567 26.6189 10.5915 26.6189 11.7294C26.6189 12.8673 25.6931 13.7931 24.5552 13.7931C24.1674 13.7931 23.7977 13.6864 23.4729 13.4849C23.3072 12.8582 22.9631 12.3032 22.4982 11.8782C22.4089 10.6811 23.3632 9.66567 24.5552 9.66567ZM18.1904 14.3352C18.1904 13.1973 19.1162 12.2714 20.2541 12.2714C21.392 12.2714 22.3178 13.1973 22.3178 14.3352C22.3178 15.473 21.392 16.3989 20.2541 16.3989C19.9836 16.3989 19.7155 16.3448 19.4672 16.2425C19.2152 15.618 18.7797 15.0867 18.2272 14.7165C18.2035 14.591 18.1904 14.4636 18.1904 14.3352ZM16.3789 15.4204C17.5168 15.4204 18.4427 16.3462 18.4427 17.4841C18.4427 18.5665 17.6048 19.4563 16.5438 19.5407C16.0764 18.7567 15.2963 18.1801 14.3767 17.9842C14.3361 17.8217 14.3153 17.6546 14.3153 17.4841C14.3153 16.3462 15.241 15.4204 16.3789 15.4204ZM11.6187 21.2403C11.6187 20.0366 12.6511 19.0832 13.8525 19.1841C14.911 19.2709 15.7461 20.1597 15.7461 21.2403C15.7461 21.986 15.3508 22.6584 14.7192 23.0242C14.2044 22.7642 13.6291 22.6219 13.0309 22.6219C12.7569 22.6219 12.4901 22.6523 12.2327 22.7084C11.8399 22.3225 11.6187 21.8016 11.6187 21.2403ZM11.5792 31.4372C11.5792 30.0689 12.6922 28.9559 14.0605 28.9559C15.4286 28.9559 16.5417 30.0689 16.5417 31.4372C16.5417 31.6597 16.5117 31.8783 16.4538 32.0901C15.503 32.3838 14.713 33.0466 14.2512 33.9104C12.7967 34.0216 11.5792 32.8672 11.5792 31.4372ZM15.0763 35.671C15.0763 34.3028 16.1893 33.1897 17.5575 33.1897C18.8334 33.1897 19.8872 34.1579 20.0236 35.3982C19.312 36.0066 18.8298 36.8757 18.7281 37.8567C18.3693 38.0496 17.9703 38.1523 17.5575 38.1523C16.1894 38.1523 15.0763 37.0392 15.0763 35.671ZM22.4549 40.727C21.0866 40.727 19.9736 39.614 19.9736 38.2458C19.9736 36.8776 21.0866 35.7645 22.4549 35.7645C23.823 35.7645 24.9361 36.8776 24.9361 38.2458C24.9361 39.6139 23.8229 40.727 22.4549 40.727ZM37.5444 40.727C36.1762 40.727 35.0631 39.614 35.0631 38.2458C35.0631 36.8776 36.1762 35.7645 37.5444 35.7645C38.9126 35.7645 40.0257 36.8776 40.0257 38.2458C40.0257 39.6139 38.9126 40.727 37.5444 40.727ZM38.8169 34.7216C38.4194 34.5777 37.991 34.4988 37.5444 34.4988C35.6032 34.4988 34.0024 35.9827 33.8159 37.8757C31.2724 39.3464 28.7676 39.37 26.1832 37.8757C25.9968 35.9827 24.3959 34.4987 22.4548 34.4987C22.0082 34.4987 21.5797 34.5776 21.1822 34.7216C20.7784 33.181 19.4163 32.0248 17.7741 31.9307C17.7956 31.7678 17.8073 31.6032 17.8073 31.4371C17.8073 30.1658 17.1704 29.0411 16.1995 28.3633C16.3957 28.0521 16.5473 27.7139 16.6445 27.3588C16.7367 27.0216 16.5381 26.6737 16.201 26.5815C15.8636 26.4895 15.5158 26.6878 15.4236 27.0249C15.3455 27.3107 15.2142 27.5802 15.04 27.8209C14.7275 27.7362 14.3993 27.6901 14.0605 27.6901C13.188 27.6901 12.3849 27.9907 11.7474 28.4926C11.0095 28.0481 10.5495 27.2499 10.5495 26.3687C10.5495 25.0005 11.6626 23.8874 13.0308 23.8874C13.5034 23.8874 13.955 24.0204 14.3419 24.2618C14.3481 24.266 14.3545 24.2697 14.3608 24.2736C14.6599 24.464 14.9195 24.7194 15.1188 25.0293C15.3079 25.3233 15.6993 25.4082 15.9933 25.2191C16.2872 25.0301 16.3723 24.6386 16.1832 24.3446C16.0633 24.1582 15.928 23.9857 15.7811 23.8264C16.5489 23.2059 17.0117 22.2658 17.0117 21.2403C17.0117 21.0767 16.9992 20.9161 16.9764 20.7587C18.4854 20.484 19.6426 19.1894 19.7048 17.6173C19.886 17.6476 20.0696 17.6645 20.254 17.6645C21.8975 17.6645 23.2657 16.4673 23.5346 14.8994C23.8606 15.0043 24.2034 15.0588 24.5552 15.0588C25.6589 15.0588 26.6384 14.5185 27.2445 13.689H29.3263C29.2199 14.3711 28.856 15.4512 27.6349 15.9375C27.3102 16.0669 27.1519 16.4349 27.2812 16.7596C27.3799 17.0075 27.6178 17.1584 27.8693 17.1584C27.9473 17.1584 28.0265 17.1439 28.1033 17.1134C29.0382 16.7409 29.6285 16.1431 30.0016 15.518C30.3747 16.1432 30.9649 16.7409 31.8999 17.1134C31.9767 17.1439 32.056 17.1584 32.1339 17.1584C32.3853 17.1584 32.6233 17.0075 32.722 16.7596C32.8512 16.4348 32.6929 16.0669 32.3683 15.9375C31.1473 15.4512 30.7834 14.371 30.677 13.689H32.7547C33.3608 14.5185 34.3403 15.0588 35.444 15.0588C35.7958 15.0588 36.1386 15.0043 36.4646 14.8994C36.7335 16.4673 38.1017 17.6645 39.7452 17.6645C39.9296 17.6645 40.1132 17.6476 40.2944 17.6174C40.3567 19.1895 41.5138 20.484 43.0228 20.7588C43 20.9161 42.9876 21.0767 42.9876 21.2403C42.9876 22.2662 43.4507 23.2065 44.2189 23.827C43.6005 24.4955 43.2216 25.3886 43.2216 26.3689C43.2216 27.0858 43.4232 27.7724 43.7978 28.365C42.828 29.0429 42.192 30.1669 42.192 31.4373C42.192 31.6036 42.2037 31.7681 42.2252 31.9309C40.5829 32.0249 39.2207 33.1812 38.8169 34.7216ZM45.7479 33.9104C45.2861 33.0466 44.4961 32.3839 43.5453 32.0901C43.4874 31.8784 43.4575 31.6598 43.4575 31.4372C43.4575 30.0689 44.5705 28.9559 45.9387 28.9559C47.3069 28.9559 48.42 30.0689 48.42 31.4372C48.4201 32.8677 47.2021 34.0216 45.7479 33.9104Z" fill="white" fill-opacity="0.5"/>
</svg>
