<svg width="61" height="60" viewBox="0 0 61 60" fill="none" xmlns="http://www.w3.org/2000/svg">
<path d="M31.7861 43.7693C31.5102 43.5839 31.1348 43.6553 30.9477 43.9283C29.951 45.3825 28.7218 46.6463 27.2942 47.6843C24.491 49.7225 20.7241 49.7224 17.9209 47.6843C14.1398 44.9352 11.8392 40.698 11.6089 36.0578L11.1003 26.2877C11.0467 25.2092 11.549 24.1967 12.4437 23.5792C13.3386 22.9618 14.472 22.8456 15.4755 23.2685L15.801 23.4057C16.1081 23.535 16.4623 23.3936 16.5929 23.09C16.7234 22.7863 16.5805 22.4354 16.2739 22.3061L15.9483 22.169C14.5598 21.5838 12.9915 21.7445 11.7534 22.5989C10.5155 23.4531 9.82055 24.8541 9.89467 26.3478L10.4033 36.1179C10.6514 41.1175 13.1311 45.6844 17.2063 48.6475C18.7833 49.7941 20.651 50.4001 22.6076 50.4001C24.5641 50.4001 26.4318 49.794 28.0087 48.6474C29.5475 47.5286 30.8724 46.1666 31.9466 44.5993C32.1339 44.3263 32.0619 43.9547 31.7861 43.7693Z" fill="white" fill-opacity="0.5"/>
<path d="M33.4615 22.5985C32.2235 21.7442 30.6553 21.5835 29.2667 22.1686L25.1912 23.886C23.5492 24.578 21.6658 24.578 20.0238 23.886L18.6747 23.3175C18.368 23.1883 18.0135 23.3295 17.883 23.6332C17.7524 23.9368 17.8952 24.2878 18.2019 24.417L19.551 24.9856C21.4934 25.804 23.7215 25.8041 25.664 24.9856L29.7395 23.2681C30.7433 22.8452 31.8765 22.9614 32.7713 23.5788C33.666 24.1963 34.1683 25.2088 34.1148 26.2859L33.6062 36.059C33.5084 38.0294 33.0351 39.9385 32.1995 41.7333C32.06 42.033 32.1922 42.3879 32.495 42.5261C32.5769 42.5635 32.6627 42.5811 32.7473 42.5811C32.9756 42.5811 33.194 42.4522 33.2958 42.2335C34.1963 40.2992 34.7064 38.2415 34.8118 36.1191L35.3205 26.346C35.3945 24.8538 34.6995 23.4528 33.4615 22.5985Z" fill="white" fill-opacity="0.5"/>
<path d="M17.5961 40.1442C17.2277 39.9398 16.7787 40.0192 16.5045 40.337C16.2302 40.6549 16.2212 41.1062 16.4826 41.4346L18.2481 43.6525C19.3073 44.9832 20.8962 45.7463 22.6075 45.7463C24.3189 45.7463 25.9078 44.9831 26.967 43.6525L28.7324 41.4346C28.9939 41.1063 28.9849 40.655 28.7106 40.3371C28.4363 40.0192 27.9874 39.9399 27.6189 40.1442C26.0914 40.9911 24.3585 41.4389 22.6075 41.4389C20.8566 41.4388 19.1237 40.9911 17.5961 40.1442ZM26.0188 42.9128C25.1899 43.954 23.9465 44.5512 22.6074 44.5512C21.2683 44.5512 20.0249 43.954 19.196 42.9128L18.317 41.8085C19.6765 42.3511 21.1363 42.6339 22.6074 42.6339C24.0784 42.6339 25.5383 42.3511 26.8978 41.8085L26.0188 42.9128Z" fill="white" fill-opacity="0.5"/>
<path d="M49.2552 10.3774C48.017 9.52308 46.4489 9.36238 45.0604 9.94749L40.9848 11.6649C39.3427 12.3569 37.4593 12.3568 35.8175 11.6649L31.7419 9.94749C30.3532 9.3623 28.7852 9.52308 27.5472 10.3774C26.309 11.2317 25.614 12.6327 25.688 14.125L26.0236 20.8843C26.0399 21.2139 26.3251 21.4675 26.656 21.4518C26.989 21.4355 27.2456 21.1553 27.2293 20.8256L26.8938 14.0664C26.8402 12.9879 27.3425 11.9753 28.2373 11.3579C29.1322 10.7404 30.2655 10.6243 31.269 11.0472L35.3446 12.7646C37.287 13.5832 39.515 13.5832 41.4576 12.7646L45.5331 11.0472C46.5366 10.6243 47.67 10.7405 48.5648 11.3579C49.4596 11.9753 49.9619 12.9879 49.9084 14.0664L49.3997 24.316C49.3368 25.5848 49.1139 26.8449 48.7374 28.0613C48.6397 28.3768 48.819 28.7109 49.1377 28.8076C49.1966 28.8255 49.2562 28.834 49.3148 28.834C49.573 28.834 49.8121 28.6686 49.8916 28.4113C50.2975 27.1003 50.5376 25.7422 50.6055 24.3746L51.1142 14.125C51.1882 12.6327 50.4932 11.2317 49.2552 10.3774Z" fill="white" fill-opacity="0.5"/>
<path d="M48.5886 30.1678C48.2906 30.0201 47.9278 30.1396 47.7787 30.4348C46.683 32.6026 45.0611 34.5066 43.0883 35.9409C41.2221 37.2978 38.8572 37.7771 36.6003 37.2558C36.2759 37.1809 35.9511 37.3804 35.8753 37.7019C35.7996 38.0233 36.0013 38.3446 36.326 38.4196C37.0148 38.5787 37.7121 38.657 38.4053 38.657C40.3297 38.657 42.2217 38.0539 43.8029 36.9042C45.9292 35.3583 47.6773 33.3061 48.8582 30.9696C49.0074 30.6744 48.8866 30.3155 48.5886 30.1678Z" fill="white" fill-opacity="0.5"/>
<path d="M36.8279 29.7696C36.4977 29.8149 36.2671 30.1166 36.3129 30.4435C36.3587 30.7705 36.663 30.9989 36.9936 30.9534C39.1958 30.6512 41.4759 31.0766 43.4133 32.1508C43.5499 32.2266 43.6977 32.2634 43.8436 32.2633C44.0907 32.2633 44.3323 32.1577 44.5049 31.9578C44.7791 31.64 44.7882 31.1887 44.5268 30.8603L42.7613 28.6424C41.3697 26.8942 39.0688 26.1522 36.899 26.7522C36.5779 26.841 36.3904 27.1706 36.48 27.4885C36.5697 27.8064 36.9027 27.9921 37.2237 27.9032C38.9225 27.4334 40.724 28.0139 41.8131 29.3821L42.6933 30.488C40.8451 29.7528 38.8085 29.4981 36.8279 29.7696Z" fill="white" fill-opacity="0.5"/>
<path d="M19.714 26.8539C17.451 25.8243 15.3744 25.8328 13.5425 26.8793C13.2538 27.0443 13.1548 27.4097 13.3214 27.6956C13.4879 27.9814 13.857 28.0794 14.1458 27.9145C15.6399 27.0612 17.2962 27.0694 19.2099 27.9399C19.2916 27.9771 19.3772 27.9947 19.4616 27.9947C19.6901 27.9947 19.9088 27.8655 20.0103 27.6465C20.1497 27.3465 20.0169 26.9918 19.714 26.8539Z" fill="white" fill-opacity="0.5"/>
<path d="M18.2715 33.5324C18.376 33.563 18.482 33.578 18.587 33.578C18.82 33.578 19.0479 33.5039 19.241 33.3611C19.52 33.1548 19.68 32.8387 19.68 32.4937V31.6796C19.68 30.0252 18.3347 28.6711 16.6805 28.661H16.6255C14.972 28.6711 13.6267 30.0252 13.6267 31.6796V32.4713C13.6267 32.8156 13.7942 33.143 14.0746 33.3469C14.3574 33.5524 14.7107 33.6108 15.0445 33.5072C16.0705 33.1887 17.126 33.1969 18.2715 33.5324ZM14.8339 32.3222V31.6797C14.8339 30.6802 15.6408 29.8622 16.632 29.8562H16.6739C17.6659 29.8622 18.4729 30.6802 18.4729 31.6797V32.3464C17.8282 32.17 17.1933 32.0819 16.5715 32.0819C15.979 32.0818 15.3986 32.162 14.8339 32.3222Z" fill="white" fill-opacity="0.5"/>
<path d="M31.6714 27.6956C31.8379 27.4097 31.739 27.0443 31.4502 26.8793C29.6183 25.8329 27.5421 25.8243 25.2787 26.8539C24.9758 26.9917 24.8431 27.3465 24.9823 27.6464C25.084 27.8654 25.3026 27.9946 25.5311 27.9946C25.6154 27.9946 25.7011 27.977 25.7828 27.9398C27.6963 27.0693 29.3527 27.061 30.8469 27.9144C31.1355 28.0793 31.5047 27.9813 31.6714 27.6956Z" fill="white" fill-opacity="0.5"/>
<path d="M28.3667 28.6611H28.3116C26.6581 28.6711 25.3129 30.0253 25.3129 31.6797V32.4938C25.3129 32.8387 25.4729 33.1549 25.7519 33.3612C25.945 33.504 26.1728 33.5781 26.4059 33.5781C26.5109 33.5781 26.6169 33.563 26.7213 33.5324C27.8668 33.1969 28.9223 33.1886 29.9483 33.5073C30.2819 33.611 30.6354 33.5525 30.9181 33.347C31.1987 33.1431 31.3661 32.8158 31.3661 32.4714V31.6797C31.3662 30.0253 30.021 28.6711 28.3667 28.6611ZM30.1591 32.3222C29.0019 31.9938 27.7793 32.0019 26.5201 32.3464V31.6796C26.5201 30.6802 27.3271 29.8621 28.3182 29.8561H28.3602C29.3521 29.8622 30.1592 30.6802 30.1592 31.6796V32.3222H30.1591Z" fill="white" fill-opacity="0.5"/>
<path d="M35.6193 14.4902C33.3563 13.4606 31.2797 13.4691 29.4478 14.5156C29.1591 14.6805 29.0601 15.046 29.2267 15.3318C29.3932 15.6176 29.7623 15.7156 30.0511 15.5508C31.5452 14.6974 33.2016 14.7056 35.1152 15.5762C35.1969 15.6133 35.2825 15.6309 35.3669 15.6309C35.5954 15.6309 35.8141 15.5018 35.9156 15.2827C36.0549 14.9828 35.9222 14.628 35.6193 14.4902Z" fill="white" fill-opacity="0.5"/>
<path d="M35.1369 16.4479C34.8543 16.2424 34.5007 16.1841 34.1671 16.2876C33.1412 16.6063 32.0856 16.598 30.94 16.2625C30.6038 16.1642 30.2508 16.2266 29.9707 16.4338C29.6917 16.6401 29.5317 16.9563 29.5317 17.3012V18.1153C29.5317 19.7698 30.8769 21.1239 32.5296 21.1339C32.5393 21.1339 32.5489 21.134 32.5584 21.134C32.5677 21.134 32.577 21.134 32.5862 21.1339C34.2397 21.1239 35.5849 19.7697 35.5849 18.1153V17.3236C35.5849 16.9792 35.4174 16.6518 35.1369 16.4479ZM34.3778 18.1153C34.3778 19.1147 33.5708 19.9327 32.5782 19.9387H32.5378C31.5459 19.9327 30.7389 19.1147 30.7389 18.1153V17.4486C31.9978 17.7929 33.2205 17.801 34.3778 17.4728V18.1153Z" fill="white" fill-opacity="0.5"/>
<path d="M47.576 15.3317C47.7426 15.0458 47.6436 14.6805 47.3548 14.5155C45.5229 13.469 43.4466 13.4604 41.1833 14.49C40.8804 14.6279 40.7477 14.9827 40.8869 15.2825C40.9886 15.5016 41.2072 15.6307 41.4357 15.6307C41.5201 15.6307 41.6057 15.6131 41.6874 15.576C43.6009 14.7053 45.2573 14.6972 46.7515 15.5506C47.0403 15.7155 47.4095 15.6175 47.576 15.3317Z" fill="white" fill-opacity="0.5"/>
<path d="M46.832 16.4337C46.5518 16.2266 46.1986 16.1642 45.8627 16.2626C44.7172 16.5981 43.6617 16.6064 42.6356 16.2877C42.3021 16.1842 41.9485 16.2424 41.6658 16.448C41.3853 16.6519 41.2178 16.9792 41.2178 17.3236V18.1153C41.2178 19.7697 42.563 21.1239 44.2158 21.1338C44.2254 21.1338 44.235 21.1339 44.2445 21.1339C44.2539 21.1339 44.2632 21.1339 44.2724 21.1338C45.9259 21.1239 47.271 19.7697 47.271 18.1153V17.3011C47.271 16.9562 47.111 16.64 46.832 16.4337ZM46.0639 18.1153C46.0639 19.1148 45.2569 19.9328 44.2643 19.9387H44.2239C43.232 19.9328 42.425 19.1148 42.425 18.1153V17.4727C43.5823 17.801 44.805 17.7929 46.0639 17.4485V18.1153Z" fill="white" fill-opacity="0.5"/>
</svg>
