<svg width="160" height="160" fill="none" xmlns="http://www.w3.org/2000/svg"><path d="M66.667 120a6.667 6.667 0 006.666-6.666v-40a6.666 6.666 0 10-13.333 0v40A6.668 6.668 0 0066.667 120zm66.666-80h-26.666v-6.666a19.999 19.999 0 00-20-20H73.333a20 20 0 00-20 20V40H26.667a6.667 6.667 0 100 13.334h6.666v73.333a20 20 0 0020 20h53.334a20 20 0 0020-20V53.333h6.666a6.666 6.666 0 100-13.333zm-66.666-6.666a6.666 6.666 0 016.666-6.667h13.334a6.666 6.666 0 016.666 6.666V40H66.667v-6.666zm46.666 93.333a6.667 6.667 0 01-6.666 6.667H53.333a6.668 6.668 0 01-6.666-6.667V53.333h66.666v73.334zm-20-6.667a6.667 6.667 0 006.667-6.666v-40a6.667 6.667 0 00-13.333 0v40A6.668 6.668 0 0093.333 120z" fill="#fff" fill-opacity=".25"/></svg>