<svg width="19" height="16" fill="none" xmlns="http://www.w3.org/2000/svg"><path d="M11.875.584a3.167 3.167 0 012.743 4.75h3.59v1.583h-1.583v7.917a.792.792 0 01-.791.791H3.167a.792.792 0 01-.792-.791V6.917H.792V5.334h3.591A3.167 3.167 0 019.5 1.656 3.153 3.153 0 0111.875.584zm-1.583 6.333H8.709v7.917h1.583V6.917zm-3.167-4.75a1.583 1.583 0 00-.118 3.163l.118.003H8.71V3.75a1.583 1.583 0 00-1.344-1.565l-.122-.014-.118-.004zm4.75 0a1.583 1.583 0 00-1.58 1.464l-.003.12v1.583h1.583a1.583 1.583 0 001.58-1.465l.004-.119a1.584 1.584 0 00-1.584-1.583z" fill="#fff"/></svg>