<svg width="29" height="29" fill="none" xmlns="http://www.w3.org/2000/svg"><path d="M11.334 25.667H6v2.666H3.334v-2.666H2a1.333 1.333 0 01-1.333-1.334v-20A1.333 1.333 0 012 3h9.334V1.12a.666.666 0 01.776-.657l14.109 2.352a1.333 1.333 0 011.115 1.314V7h1.333v2.667h-1.333V19h1.333v2.667h-1.333v2.87a1.334 1.334 0 01-1.115 1.315l-1.552.259v2.222H22v-1.777l-9.89 1.648a.668.668 0 01-.776-.657v-1.88zm2.666-.48l10.667-1.779V5.258L14 3.482v21.706zm6-7.52c-1.104 0-2-1.494-2-3.334S18.896 11 20 11s2 1.493 2 3.333-.896 3.334-2 3.334z" fill="#fff" fill-opacity=".87"/></svg>