<svg width="17" height="17" fill="none" xmlns="http://www.w3.org/2000/svg"><path d="M.688 9.79a7.87 7.87 0 010-2.58c.872.02 1.656-.398 1.96-1.133.305-.737.046-1.587-.585-2.188a7.87 7.87 0 011.825-1.826c.602.632 1.452.89 2.188.586.737-.305 1.154-1.09 1.133-1.961a7.87 7.87 0 012.582 0c-.021.872.397 1.656 1.132 1.96.736.305 1.586.047 2.187-.585a7.873 7.873 0 011.827 1.825c-.632.602-.89 1.452-.586 2.189.305.736 1.09 1.153 1.96 1.132a7.87 7.87 0 010 2.582c-.871-.021-1.655.397-1.96 1.132-.305.736-.046 1.587.586 2.188a7.871 7.871 0 01-1.826 1.826c-.602-.632-1.452-.89-2.188-.586-.736.305-1.153 1.09-1.132 1.961a7.87 7.87 0 01-2.582 0c.02-.872-.397-1.656-1.133-1.96-.736-.306-1.586-.047-2.187.585a7.871 7.871 0 01-1.826-1.826c.631-.601.89-1.452.586-2.188-.305-.736-1.09-1.153-1.961-1.132zM8.5 10.875a2.375 2.375 0 100-4.75 2.375 2.375 0 000 4.75z" fill="#fff"/></svg>