<svg width="28" height="28" fill="none" xmlns="http://www.w3.org/2000/svg"><path d="M14 12.666a6.667 6.667 0 016.667 6.667v8H7.334v-8A6.667 6.667 0 0114 12.667zm-8.949 4.008a9.311 9.311 0 00-.373 2.2l-.011.46v8h-4v-6a4.667 4.667 0 014.159-4.64l.226-.02h-.001zm17.899 0a4.668 4.668 0 014.384 4.66v6h-4v-8c0-.925-.134-1.817-.384-2.66zM5.334 8.666a3.333 3.333 0 110 6.667 3.333 3.333 0 010-6.667zm17.333 0a3.333 3.333 0 110 6.667 3.333 3.333 0 010-6.667zM14 .666a5.333 5.333 0 110 10.667A5.333 5.333 0 0114 .667z" fill="#fff" fill-opacity=".87"/></svg>