<svg width="19" height="19" fill="none" xmlns="http://www.w3.org/2000/svg"><path d="M16.625 6.333a1.583 1.583 0 011.584 1.584v3.166a1.584 1.584 0 01-1.584 1.584h-.84A6.334 6.334 0 019.5 18.208v-1.583a4.75 4.75 0 004.75-4.75v-4.75a4.75 4.75 0 10-9.5 0v5.542H2.375a1.583 1.583 0 01-1.583-1.584V7.917a1.583 1.583 0 011.583-1.584h.841a6.334 6.334 0 0112.569 0h.84zM6.144 12.496l.839-1.342a4.729 4.729 0 002.517.721 4.728 4.728 0 002.518-.721l.839 1.342a6.304 6.304 0 01-3.357.962 6.304 6.304 0 01-3.356-.962z" fill="#fff"/></svg>