<svg width="32" height="25" fill="none" xmlns="http://www.w3.org/2000/svg"><path d="M29.333 13v10A1.333 1.333 0 0128 24.334h-1.333A1.333 1.333 0 0125.333 23v-1.333H6.667V23a1.333 1.333 0 01-1.334 1.334H4A1.334 1.334 0 012.667 23V13l-1.658-.413A1.333 1.333 0 010 11.294v-.96a.667.667 0 01.667-.667h2.5l2.85-7.603A2.667 2.667 0 018.515.334h14.97a2.667 2.667 0 012.498 1.73l2.85 7.603h2.5a.667.667 0 01.667.667v.96a1.333 1.333 0 01-1.01 1.293L29.334 13zm-24 2v2.667A1.333 1.333 0 006.667 19h4.326a.667.667 0 00.587-.981C10.507 16.006 8.424 15 5.333 15zm21.334 0c-3.09 0-5.172 1.007-6.248 3.019a.667.667 0 00.588.981h4.326a1.333 1.333 0 001.334-1.333V15zM8 3L5.919 9.245A1.333 1.333 0 007.183 11h17.634a1.334 1.334 0 001.264-1.755L24 3H8z" fill="#fff" fill-opacity=".87"/></svg>