<svg height="512" width="512" xmlns="http://www.w3.org/2000/svg" fill="#08ceff"><path d="M276.956 0v57.674h136.589L312.156 159.063c-32.544-24.144-72.837-38.431-116.471-38.431C87.611 120.632 0 208.242 0 316.316 0 424.389 87.611 512 195.684 512s195.684-87.611 195.684-195.684c0-43.634-14.287-83.928-38.431-116.472L454.326 98.456v136.589H512V0zm-81.272 447.552c-72.48 0-131.237-58.757-131.237-131.237s58.757-131.237 131.237-131.237 131.237 58.757 131.237 131.237c0 72.481-58.757 131.237-131.237 131.237z"/></svg>